<svg xmlns="http://www.w3.org/2000/svg" viewBox="0 0 760 800" width="760" height="800" role="img" aria-label="The company Settings dialog."><rect x="0.0" y="0.0" width="760.0" height="800.0" fill="#f6f6f6"/><rect x="18.0" y="22.0" width="728.0" height="768.0" rx="8" fill="#000" opacity="0.14"/><rect x="16.0" y="16.0" width="728.0" height="768.0" rx="8" fill="#ffffff"/><text x="40.0" y="54.0" font-family="Roboto, Arial, Helvetica, sans-serif" font-size="20" fill="#212121" font-weight="500">Company Settings</text><text x="40.0" y="74.0" font-family="Roboto, Arial, Helvetica, sans-serif" font-size="11" fill="#616161" font-weight="700" letter-spacing="1">INTERFACE/VIEWER SETTINGS</text><circle cx="720.0" cy="70.0" r="14" fill="#ffffff"/><circle cx="720.0" cy="70.0" r="12" fill="#7c3aed"/><text x="720.0" y="74.6" font-family="Roboto, Arial, Helvetica, sans-serif" font-size="12.600000000000001" fill="#fff" font-weight="700" text-anchor="middle">1</text><rect x="42.0" y="90.0" width="18.0" height="18.0" rx="3" fill="#1976D2"/><path d="M46 99 l4 4 l8 -8" fill="none" stroke="#fff" stroke-width="2.2" stroke-linejoin="round"/><text x="70.0" y="104.0" font-family="Roboto, Arial, Helvetica, sans-serif" font-size="14" fill="#212121">Use corporate color in the interface</text><rect x="42.0" y="124.0" width="18.0" height="18.0" rx="3" fill="#1976D2"/><path d="M46 133 l4 4 l8 -8" fill="none" stroke="#fff" stroke-width="2.2" stroke-linejoin="round"/><text x="70.0" y="138.0" font-family="Roboto, Arial, Helvetica, sans-serif" font-size="14" fill="#212121">Show QR button</text><rect x="42.0" y="158.0" width="18.0" height="18.0" rx="3" fill="#1976D2"/><path d="M46 167 l4 4 l8 -8" fill="none" stroke="#fff" stroke-width="2.2" stroke-linejoin="round"/><text x="70.0" y="172.0" font-family="Roboto, Arial, Helvetica, sans-serif" font-size="14" fill="#212121">Show RFID button</text><rect x="43.0" y="193.0" width="16.0" height="16.0" rx="2" fill="#ffffff" stroke="#616161" stroke-width="2"/><text x="70.0" y="206.0" font-family="Roboto, Arial, Helvetica, sans-serif" font-size="14" fill="#212121">Show project number in the project selector</text><rect x="43.0" y="227.0" width="16.0" height="16.0" rx="2" fill="#ffffff" stroke="#616161" stroke-width="2"/><text x="70.0" y="240.0" font-family="Roboto, Arial, Helvetica, sans-serif" font-size="14" fill="#212121">Avoid native camera in viewer</text><rect x="40.5" y="262.5" width="299.0" height="43.0" rx="4" fill="#ffffff" stroke="#dcdcdc" stroke-width="1"/><rect x="48.0" y="260.0" width="56.0" height="5.0" fill="#ffffff"/><text x="52.0" y="266.0" font-family="Roboto, Arial, Helvetica, sans-serif" font-size="11" fill="#616161">Language</text><text x="52.0" y="289.0" font-family="Roboto, Arial, Helvetica, sans-serif" font-size="14" fill="#212121">English</text><path transform="translate(308.0,272.0) scale(1.0000)" d="M6.98 9.98 12 15 17.02 9.98Z" fill="#616161"/><rect x="42.0" y="324.0" width="18.0" height="18.0" rx="3" fill="#1976D2"/><path d="M46 333 l4 4 l8 -8" fill="none" stroke="#fff" stroke-width="2.2" stroke-linejoin="round"/><text x="70.0" y="338.0" font-family="Roboto, Arial, Helvetica, sans-serif" font-size="14" fill="#212121">Custom Viewer Header</text><rect x="40.5" y="352.5" width="659.0" height="43.0" rx="4" fill="#ffffff" stroke="#dcdcdc" stroke-width="1"/><rect x="48.0" y="350.0" width="183.0" height="5.0" fill="#ffffff"/><text x="52.0" y="356.0" font-family="Roboto, Arial, Helvetica, sans-serif" font-size="11" fill="#616161">Custom Viewer Header Text Format</text><text x="52.0" y="379.0" font-family="Roboto, Arial, Helvetica, sans-serif" font-size="14" fill="#212121">{design_name} · {batch_name}</text><path transform="translate(668.0,364.0) scale(0.8333)" d="M8.02 3Q7.17 3 6.59 3.59Q6 4.17 6 5.02V9Q6 9.84 5.41 10.43Q4.83 11.02 3.98 11.02H3V12.98H3.98Q4.83 12.98 5.41 13.57Q6 14.16 6 15V18.98Q6 19.83 6.59 20.41Q7.17 21 8.02 21H9.98V18.98H8.02V14.02Q8.02 13.17 7.43 12.59Q6.84 12 6 12Q6.84 12 7.43 11.41Q8.02 10.83 8.02 9.98V5.02H9.98V3ZM15.98 3Q16.83 3 17.41 3.59Q18 4.17 18 5.02V9Q18 9.84 18.59 10.43Q19.17 11.02 20.02 11.02H21V12.98H20.02Q19.17 12.98 18.59 13.57Q18 14.16 18 15V18.98Q18 19.83 17.41 20.41Q16.83 21 15.98 21H14.02V18.98H15.98V14.02Q15.98 13.17 16.57 12.59Q17.16 12 18 12Q17.16 12 16.57 11.41Q15.98 10.83 15.98 9.98V5.02H14.02V3Z" fill="#616161"/><circle cx="720.0" cy="374.0" r="14" fill="#ffffff"/><circle cx="720.0" cy="374.0" r="12" fill="#7c3aed"/><text x="720.0" y="378.6" font-family="Roboto, Arial, Helvetica, sans-serif" font-size="12.600000000000001" fill="#fff" font-weight="700" text-anchor="middle">2</text><rect x="43.0" y="415.0" width="16.0" height="16.0" rx="2" fill="#ffffff" stroke="#616161" stroke-width="2"/><text x="70.0" y="428.0" font-family="Roboto, Arial, Helvetica, sans-serif" font-size="14" fill="#212121">Custom List Hint</text><rect x="43.0" y="449.0" width="16.0" height="16.0" rx="2" fill="#ffffff" stroke="#616161" stroke-width="2"/><text x="70.0" y="462.0" font-family="Roboto, Arial, Helvetica, sans-serif" font-size="14" fill="#212121">Custom Constructibles Table Column</text><rect x="43.0" y="483.0" width="16.0" height="16.0" rx="2" fill="#ffffff" stroke="#616161" stroke-width="2"/><text x="70.0" y="496.0" font-family="Roboto, Arial, Helvetica, sans-serif" font-size="14" fill="#212121">Zones from 10 are subzones</text><text x="40.0" y="530.0" font-family="Roboto, Arial, Helvetica, sans-serif" font-size="11" fill="#616161" font-weight="700" letter-spacing="1">COMPANY WORKFLOW SETTINGS</text><circle cx="720.0" cy="526.0" r="14" fill="#ffffff"/><circle cx="720.0" cy="526.0" r="12" fill="#7c3aed"/><text x="720.0" y="530.6" font-family="Roboto, Arial, Helvetica, sans-serif" font-size="12.600000000000001" fill="#fff" font-weight="700" text-anchor="middle">3</text><rect x="43.0" y="547.0" width="16.0" height="16.0" rx="2" fill="#ffffff" stroke="#616161" stroke-width="2"/><text x="70.0" y="560.0" font-family="Roboto, Arial, Helvetica, sans-serif" font-size="14" fill="#212121">Production list based on dates</text><rect x="43.0" y="581.0" width="16.0" height="16.0" rx="2" fill="#ffffff" stroke="#616161" stroke-width="2"/><text x="70.0" y="594.0" font-family="Roboto, Arial, Helvetica, sans-serif" font-size="14" fill="#212121">Forced time registration in viewer</text><rect x="42.0" y="614.0" width="18.0" height="18.0" rx="3" fill="#1976D2"/><path d="M46 623 l4 4 l8 -8" fill="none" stroke="#fff" stroke-width="2.2" stroke-linejoin="round"/><text x="70.0" y="628.0" font-family="Roboto, Arial, Helvetica, sans-serif" font-size="14" fill="#212121">Launch analysis automatically</text><rect x="42.0" y="648.0" width="18.0" height="18.0" rx="3" fill="#1976D2"/><path d="M46 657 l4 4 l8 -8" fill="none" stroke="#fff" stroke-width="2.2" stroke-linejoin="round"/><text x="70.0" y="662.0" font-family="Roboto, Arial, Helvetica, sans-serif" font-size="14" fill="#212121">Best effort panel orientation</text><rect x="40.5" y="686.5" width="299.0" height="43.0" rx="4" fill="#ffffff" stroke="#dcdcdc" stroke-width="1"/><rect x="48.0" y="684.0" width="63.0" height="5.0" fill="#ffffff"/><text x="52.0" y="690.0" font-family="Roboto, Arial, Helvetica, sans-serif" font-size="11" fill="#616161">Kitted parts</text><text x="52.0" y="713.0" font-family="Roboto, Arial, Helvetica, sans-serif" font-size="14" fill="#212121">Automatic</text><path transform="translate(308.0,696.0) scale(1.0000)" d="M6.98 9.98 12 15 17.02 9.98Z" fill="#616161"/><rect x="190.0" y="696.0" width="94.0" height="22.0" rx="11.0" fill="#4CAF50" opacity="0.14"/><text x="200.0" y="711.0" font-family="Roboto, Arial, Helvetica, sans-serif" font-size="11" fill="#4CAF50" font-weight="500">Recommended</text><circle cx="360.0" cy="708.0" r="14" fill="#ffffff"/><circle cx="360.0" cy="708.0" r="12" fill="#7c3aed"/><text x="360.0" y="712.6" font-family="Roboto, Arial, Helvetica, sans-serif" font-size="12.600000000000001" fill="#fff" font-weight="700" text-anchor="middle">4</text><text x="657.4" y="758.7" font-family="Roboto, Arial, Helvetica, sans-serif" font-size="13" fill="#616161" font-weight="700" letter-spacing="0.9">CLOSE</text><rect x="543.4" y="736.0" width="90.0" height="36.0" rx="4" fill="#4CAF50"/><text x="569.2" y="758.7" font-family="Roboto, Arial, Helvetica, sans-serif" font-size="13" fill="#ffffff" font-weight="700" letter-spacing="0.9">SAVE</text></svg>
