<svg xmlns="http://www.w3.org/2000/svg" viewBox="0 0 1000 520" width="1000" height="520" role="img" aria-label="How the stations of a line become the layers of one MOB v2 file."><rect x="0.0" y="0.0" width="1000.0" height="520.0" fill="#ffffff"/><text x="30.0" y="30.0" font-family="Roboto, Arial, Helvetica, sans-serif" font-size="15" fill="#212121" font-weight="700">Wall line 1</text><rect x="30.0" y="50.0" width="330.0" height="92.0" rx="8" fill="#ffffff" stroke="#dcdcdc" stroke-width="1"/><rect x="42.5" y="62.5" width="22.0" height="22.0" rx="4" fill="none" stroke="#616161" stroke-width="1"/><text x="53.5" y="78.0" font-family="Consolas, monospace" font-size="12" fill="#212121" text-anchor="middle">1</text><text x="76.0" y="79.0" font-family="Roboto, Arial, Helvetica, sans-serif" font-size="15" fill="#212121" font-weight="700">Framing</text><path transform="translate(44.0,94.0) scale(0.7500)" d="M18.42 3.98 15.98 6.42V6.61L18.42 9H21.98V11.02H17.58L15.98 9.42V12H15Q14.16 12 13.57 11.41Q12.98 10.83 12.98 9.98V7.5H9.84Q9.75 8.06 9.42 8.53L15.19 18.98H20.02Q20.81 18.98 21.4 19.57Q21.98 20.16 21.98 21V21.98H2.02V21Q2.02 20.16 2.6 19.57Q3.19 18.98 3.98 18.98H10.59L5.91 10.5Q4.59 10.5 3.52 9.66Q2.44 8.81 2.11 7.5Q1.69 5.91 2.53 4.48Q3.38 3.05 4.99 2.62Q6.61 2.2 8.04 3.05Q9.47 3.89 9.84 5.48H12.98V3Q12.98 2.16 13.57 1.57Q14.16 0.98 15 0.98H15.98V3.61L17.58 2.02H21.98V3.98ZM6 4.5Q5.16 4.5 4.57 5.09Q3.98 5.67 3.98 6.49Q3.98 7.31 4.57 7.9Q5.16 8.48 6 8.48Q6.84 8.48 7.43 7.9Q8.02 7.31 8.02 6.49Q8.02 5.67 7.43 5.09Q6.84 4.5 6 4.5Z" fill="#1976D2"/><text x="68.0" y="108.0" font-family="Roboto, Arial, Helvetica, sans-serif" font-size="13" fill="#1976D2">Frame Station V2</text><path transform="translate(44.0,116.0) scale(0.6667)" d="M12 15.98 19.36 10.27 21 9 12 2.02 3 9 4.64 10.27ZM12 18.56 4.64 12.8 3 14.06 12 21.05 21 14.06 19.36 12.8Z" fill="#616161"/><text x="68.0" y="129.0" font-family="Roboto, Arial, Helvetica, sans-serif" font-size="12" fill="#616161">Zones: 0</text><rect x="30.0" y="156.0" width="330.0" height="92.0" rx="8" fill="#ffffff" stroke="#dcdcdc" stroke-width="1"/><rect x="42.5" y="168.5" width="22.0" height="22.0" rx="4" fill="none" stroke="#616161" stroke-width="1"/><text x="53.5" y="184.0" font-family="Consolas, monospace" font-size="12" fill="#212121" text-anchor="middle">2</text><text x="76.0" y="185.0" font-family="Roboto, Arial, Helvetica, sans-serif" font-size="15" fill="#212121" font-weight="700">Inside</text><path transform="translate(44.0,200.0) scale(0.7500)" d="M18.42 3.98 15.98 6.42V6.61L18.42 9H21.98V11.02H17.58L15.98 9.42V12H15Q14.16 12 13.57 11.41Q12.98 10.83 12.98 9.98V7.5H9.84Q9.75 8.06 9.42 8.53L15.19 18.98H20.02Q20.81 18.98 21.4 19.57Q21.98 20.16 21.98 21V21.98H2.02V21Q2.02 20.16 2.6 19.57Q3.19 18.98 3.98 18.98H10.59L5.91 10.5Q4.59 10.5 3.52 9.66Q2.44 8.81 2.11 7.5Q1.69 5.91 2.53 4.48Q3.38 3.05 4.99 2.62Q6.61 2.2 8.04 3.05Q9.47 3.89 9.84 5.48H12.98V3Q12.98 2.16 13.57 1.57Q14.16 0.98 15 0.98H15.98V3.61L17.58 2.02H21.98V3.98ZM6 4.5Q5.16 4.5 4.57 5.09Q3.98 5.67 3.98 6.49Q3.98 7.31 4.57 7.9Q5.16 8.48 6 8.48Q6.84 8.48 7.43 7.9Q8.02 7.31 8.02 6.49Q8.02 5.67 7.43 5.09Q6.84 4.5 6 4.5Z" fill="#1976D2"/><text x="68.0" y="214.0" font-family="Roboto, Arial, Helvetica, sans-serif" font-size="13" fill="#1976D2">Mobi One V2</text><path transform="translate(44.0,222.0) scale(0.6667)" d="M12 15.98 19.36 10.27 21 9 12 2.02 3 9 4.64 10.27ZM12 18.56 4.64 12.8 3 14.06 12 21.05 21 14.06 19.36 12.8Z" fill="#616161"/><text x="68.0" y="235.0" font-family="Roboto, Arial, Helvetica, sans-serif" font-size="12" fill="#616161">Zones: -1, -2</text><rect x="30.0" y="262.0" width="330.0" height="92.0" rx="8" fill="#ffffff" stroke="#dcdcdc" stroke-width="1"/><rect x="42.5" y="274.5" width="22.0" height="22.0" rx="4" fill="none" stroke="#616161" stroke-width="1"/><text x="53.5" y="290.0" font-family="Consolas, monospace" font-size="12" fill="#212121" text-anchor="middle">3</text><text x="76.0" y="291.0" font-family="Roboto, Arial, Helvetica, sans-serif" font-size="15" fill="#212121" font-weight="700">Outside</text><path transform="translate(44.0,306.0) scale(0.7500)" d="M18.42 3.98 15.98 6.42V6.61L18.42 9H21.98V11.02H17.58L15.98 9.42V12H15Q14.16 12 13.57 11.41Q12.98 10.83 12.98 9.98V7.5H9.84Q9.75 8.06 9.42 8.53L15.19 18.98H20.02Q20.81 18.98 21.4 19.57Q21.98 20.16 21.98 21V21.98H2.02V21Q2.02 20.16 2.6 19.57Q3.19 18.98 3.98 18.98H10.59L5.91 10.5Q4.59 10.5 3.52 9.66Q2.44 8.81 2.11 7.5Q1.69 5.91 2.53 4.48Q3.38 3.05 4.99 2.62Q6.61 2.2 8.04 3.05Q9.47 3.89 9.84 5.48H12.98V3Q12.98 2.16 13.57 1.57Q14.16 0.98 15 0.98H15.98V3.61L17.58 2.02H21.98V3.98ZM6 4.5Q5.16 4.5 4.57 5.09Q3.98 5.67 3.98 6.49Q3.98 7.31 4.57 7.9Q5.16 8.48 6 8.48Q6.84 8.48 7.43 7.9Q8.02 7.31 8.02 6.49Q8.02 5.67 7.43 5.09Q6.84 4.5 6 4.5Z" fill="#1976D2"/><text x="68.0" y="320.0" font-family="Roboto, Arial, Helvetica, sans-serif" font-size="13" fill="#1976D2">Mobi One V2</text><path transform="translate(44.0,328.0) scale(0.6667)" d="M12 15.98 19.36 10.27 21 9 12 2.02 3 9 4.64 10.27ZM12 18.56 4.64 12.8 3 14.06 12 21.05 21 14.06 19.36 12.8Z" fill="#616161"/><text x="68.0" y="341.0" font-family="Roboto, Arial, Helvetica, sans-serif" font-size="12" fill="#616161">Zones: 1, 2</text><rect x="30.0" y="368.0" width="330.0" height="92.0" rx="8" fill="#f2f2f2" stroke="#dcdcdc" stroke-width="1"/><rect x="42.5" y="380.5" width="22.0" height="22.0" rx="4" fill="none" stroke="#616161" stroke-width="1"/><text x="53.5" y="396.0" font-family="Consolas, monospace" font-size="12" fill="#212121" text-anchor="middle">4</text><text x="76.0" y="397.0" font-family="Roboto, Arial, Helvetica, sans-serif" font-size="15" fill="#212121" font-weight="700">Windows</text><path transform="translate(44.0,412.0) scale(0.7500)" d="M16.08 13.08 21.7 18.7 18.38 21.94 12.8 16.36V15.47L15.14 13.08ZM16.97 10.55 15.98 9.61 11.2 14.39V16.36L5.58 21.98L2.3 18.7L7.88 13.08H9.84L10.64 12.33L6.8 8.44H5.48L2.67 5.62L5.3 3L8.11 5.81V7.12L12 10.97L14.67 8.3L13.69 7.27L15 5.95H12.33L11.67 5.3L15 2.02L15.66 2.67V5.3L16.97 3.98L20.25 7.27Q21.05 8.11 21.05 9.28Q21.05 10.45 20.25 11.25L18.28 9.23Z" fill="#616161"/><text x="68.0" y="426.0" font-family="Roboto, Arial, Helvetica, sans-serif" font-size="13" fill="#616161">Manual</text><path transform="translate(44.0,434.0) scale(0.6667)" d="M12 15.98 19.36 10.27 21 9 12 2.02 3 9 4.64 10.27ZM12 18.56 4.64 12.8 3 14.06 12 21.05 21 14.06 19.36 12.8Z" fill="#616161"/><text x="68.0" y="447.0" font-family="Roboto, Arial, Helvetica, sans-serif" font-size="12" fill="#616161">Zones: —</text><circle cx="360.0" cy="60.0" r="14" fill="#ffffff"/><circle cx="360.0" cy="60.0" r="12" fill="#7c3aed"/><text x="360.0" y="64.6" font-family="Roboto, Arial, Helvetica, sans-serif" font-size="12.600000000000001" fill="#fff" font-weight="700" text-anchor="middle">1</text><circle cx="360.0" cy="378.0" r="14" fill="#ffffff"/><circle cx="360.0" cy="378.0" r="12" fill="#7c3aed"/><text x="360.0" y="382.6" font-family="Roboto, Arial, Helvetica, sans-serif" font-size="12.600000000000001" fill="#fff" font-weight="700" text-anchor="middle">2</text><rect x="560.0" y="40.0" width="410.0" height="450.0" rx="8" fill="#fbfbfb" stroke="#dcdcdc" stroke-width="1"/><path transform="translate(574.0,52.0) scale(0.9167)" d="M6 2.02Q5.16 2.02 4.57 2.6Q3.98 3.19 3.98 3.98V20.02Q3.98 20.81 4.57 21.4Q5.16 21.98 6 21.98H18Q18.84 21.98 19.43 21.4Q20.02 20.81 20.02 20.02V8.02L14.02 2.02ZM6 3.98H12.98V9H18V20.02H6ZM8.02 12V14.02H15.98V12ZM8.02 15.98V18H12.98V15.98Z" fill="#616161"/><text x="604.0" y="69.0" font-family="Consolas, monospace" font-size="14" fill="#212121" font-weight="700">W-12_rev2.mob2</text><rect x="574.0" y="92.0" width="382.0" height="44.0" rx="6" fill="#ffffff" stroke="#e8e8e8" stroke-width="1"/><rect x="574.0" y="92.0" width="5.0" height="44.0" rx="2" fill="#616161"/><text x="590.0" y="111.0" font-family="Consolas, monospace" font-size="12" fill="#616161" font-weight="700">header</text><text x="590.0" y="128.0" font-family="Roboto, Arial, Helvetica, sans-serif" font-size="12" fill="#616161">VERSION · TXT · REIHE · ELN · ELM</text><rect x="574.0" y="144.0" width="382.0" height="44.0" rx="6" fill="#ffffff" stroke="#e8e8e8" stroke-width="1"/><rect x="574.0" y="144.0" width="5.0" height="44.0" rx="2" fill="#8d6e3f"/><text x="590.0" y="163.0" font-family="Consolas, monospace" font-size="12" fill="#8d6e3f" font-weight="700">Layer -1</text><text x="590.0" y="180.0" font-family="Roboto, Arial, Helvetica, sans-serif" font-size="12" fill="#616161">FRAMING  (frame map, frame nailing)</text><rect x="920.5" y="155.5" width="22.0" height="22.0" rx="4" fill="none" stroke="#616161" stroke-width="1"/><text x="931.5" y="171.0" font-family="Consolas, monospace" font-size="11" fill="#212121" text-anchor="middle">1</text><rect x="574.0" y="196.0" width="382.0" height="44.0" rx="6" fill="#ffffff" stroke="#e8e8e8" stroke-width="1"/><rect x="574.0" y="196.0" width="5.0" height="44.0" rx="2" fill="#8d6e3f"/><text x="590.0" y="215.0" font-family="Consolas, monospace" font-size="12" fill="#8d6e3f" font-weight="700">Layer 1</text><text x="590.0" y="232.0" font-family="Roboto, Arial, Helvetica, sans-serif" font-size="12" fill="#616161">FRAMING  (frame map of the turned panel)</text><rect x="920.5" y="207.5" width="22.0" height="22.0" rx="4" fill="none" stroke="#616161" stroke-width="1"/><text x="931.5" y="223.0" font-family="Consolas, monospace" font-size="11" fill="#212121" text-anchor="middle">1</text><rect x="574.0" y="248.0" width="382.0" height="44.0" rx="6" fill="#ffffff" stroke="#e8e8e8" stroke-width="1"/><rect x="574.0" y="248.0" width="5.0" height="44.0" rx="2" fill="#1976D2"/><text x="590.0" y="267.0" font-family="Consolas, monospace" font-size="12" fill="#1976D2" font-weight="700">Layer -1</text><text x="590.0" y="284.0" font-family="Roboto, Arial, Helvetica, sans-serif" font-size="12" fill="#616161">12 mm OSB -1  (plates, nails, milling)</text><rect x="920.5" y="259.5" width="22.0" height="22.0" rx="4" fill="none" stroke="#616161" stroke-width="1"/><text x="931.5" y="275.0" font-family="Consolas, monospace" font-size="11" fill="#212121" text-anchor="middle">2</text><rect x="574.0" y="300.0" width="382.0" height="44.0" rx="6" fill="#ffffff" stroke="#e8e8e8" stroke-width="1"/><rect x="574.0" y="300.0" width="5.0" height="44.0" rx="2" fill="#1976D2"/><text x="590.0" y="319.0" font-family="Consolas, monospace" font-size="12" fill="#1976D2" font-weight="700">Layer -2</text><text x="590.0" y="336.0" font-family="Roboto, Arial, Helvetica, sans-serif" font-size="12" fill="#616161">12.5 mm GIPSKARTON -2</text><rect x="920.5" y="311.5" width="22.0" height="22.0" rx="4" fill="none" stroke="#616161" stroke-width="1"/><text x="931.5" y="327.0" font-family="Consolas, monospace" font-size="11" fill="#212121" text-anchor="middle">2</text><rect x="574.0" y="352.0" width="382.0" height="44.0" rx="6" fill="#ffffff" stroke="#e8e8e8" stroke-width="1"/><rect x="574.0" y="352.0" width="5.0" height="44.0" rx="2" fill="#4CAF50"/><text x="590.0" y="371.0" font-family="Consolas, monospace" font-size="12" fill="#4CAF50" font-weight="700">Layer 1</text><text x="590.0" y="388.0" font-family="Roboto, Arial, Helvetica, sans-serif" font-size="12" fill="#616161">15 mm FIBREBOARD 1</text><rect x="920.5" y="363.5" width="22.0" height="22.0" rx="4" fill="none" stroke="#616161" stroke-width="1"/><text x="931.5" y="379.0" font-family="Consolas, monospace" font-size="11" fill="#212121" text-anchor="middle">3</text><rect x="574.0" y="404.0" width="382.0" height="44.0" rx="6" fill="#ffffff" stroke="#e8e8e8" stroke-width="1"/><rect x="574.0" y="404.0" width="5.0" height="44.0" rx="2" fill="#4CAF50"/><text x="590.0" y="423.0" font-family="Consolas, monospace" font-size="12" fill="#4CAF50" font-weight="700">Layer 2</text><text x="590.0" y="440.0" font-family="Roboto, Arial, Helvetica, sans-serif" font-size="12" fill="#616161">VUREN 21*48 2  (battens)</text><rect x="920.5" y="415.5" width="22.0" height="22.0" rx="4" fill="none" stroke="#616161" stroke-width="1"/><text x="931.5" y="431.0" font-family="Consolas, monospace" font-size="11" fill="#212121" text-anchor="middle">3</text><circle cx="970.0" cy="166.0" r="14" fill="#ffffff"/><circle cx="970.0" cy="166.0" r="12" fill="#7c3aed"/><text x="970.0" y="170.6" font-family="Roboto, Arial, Helvetica, sans-serif" font-size="12.600000000000001" fill="#fff" font-weight="700" text-anchor="middle">3</text><circle cx="970.0" cy="270.0" r="14" fill="#ffffff"/><circle cx="970.0" cy="270.0" r="12" fill="#7c3aed"/><text x="970.0" y="274.6" font-family="Roboto, Arial, Helvetica, sans-serif" font-size="12.600000000000001" fill="#fff" font-weight="700" text-anchor="middle">4</text><line x1="370.0" y1="96.0" x2="562.3" y2="164.0" stroke="#9e9e9e" stroke-width="1.5"/><path d="M568.0 166.0 L561.2 158.3 L557.8 167.7 Z" fill="#9e9e9e"/><line x1="370.0" y1="202.0" x2="562.3" y2="268.1" stroke="#9e9e9e" stroke-width="1.5"/><path d="M568.0 270.0 L561.1 262.3 L557.9 271.8 Z" fill="#9e9e9e"/><line x1="370.0" y1="308.0" x2="562.3" y2="372.1" stroke="#9e9e9e" stroke-width="1.5"/><path d="M568.0 374.0 L561.0 366.4 L557.9 375.9 Z" fill="#9e9e9e"/></svg>
