<svg xmlns="http://www.w3.org/2000/svg" viewBox="0 0 1400 800" width="1400" height="800" role="img" aria-label="The logistics viewer with a part batch running."><rect x="0.0" y="0.0" width="1400.0" height="800.0" fill="#f6f6f6"/><rect x="10.0" y="11.0" width="1384.0" height="784.0" rx="10" fill="#000" opacity="0.06"/><rect x="8.0" y="8.0" width="1384.0" height="784.0" rx="10" fill="#ffffff" stroke="#cfcfcf" stroke-width="1"/><path d="M18 8 H1382 Q1392 8 1392 18 V38 H8 V18 Q8 8 18 8 Z" fill="#ececec"/><line x1="8.0" y1="38.0" x2="1392.0" y2="38.0" stroke="#d6d6d6" stroke-width="1"/><circle cx="24.0" cy="23.0" r="5" fill="#ff5f57"/><circle cx="40.0" cy="23.0" r="5" fill="#febc2e"/><circle cx="56.0" cy="23.0" r="5" fill="#28c840"/><text x="700.0" y="27.5" font-family="Roboto, Arial, Helvetica, sans-serif" font-size="12" fill="#616161" text-anchor="middle">Logistics</text><rect x="8.0" y="39.0" width="300.0" height="753.0" fill="#fafafa"/><line x1="308.0" y1="39.0" x2="308.0" y2="792.0" stroke="#dcdcdc" stroke-width="1"/><path transform="translate(20.0,51.0) scale(1.0000)" d="M3 6H21V8.02H3ZM3 11.02H21V12.98H3ZM3 15.98H21V18H3Z" fill="#616161"/><rect x="63.0" y="55.0" width="8.0" height="6.5" rx="1.2" fill="#ea590c"/><rect x="58.0" y="63.0" width="8.0" height="6.5" rx="1.2" fill="#ea590c"/><rect x="68.0" y="63.0" width="8.0" height="6.5" rx="1.2" fill="#ea590c"/><text x="84.0" y="69.0" font-family="Roboto, Arial, Helvetica, sans-serif" font-size="15" fill="#242021" font-weight="700" letter-spacing="0.4">PRODUUZ.IT</text><path transform="translate(224.0,51.0) scale(1.0000)" d="M3.98 3.98H9.98V9.98H3.98ZM20.02 3.98V9.98H14.02V3.98ZM14.02 15H15.98V12.98H14.02V11.02H15.98V12.98H18V11.02H20.02V12.98H18V15H20.02V18H18V20.02H15.98V18H12.98V20.02H11.02V15.98H14.02ZM15.98 15V18H18V15ZM3.98 20.02V14.02H9.98V20.02ZM6 6V8.02H8.02V6ZM15.98 6V8.02H18V6ZM6 15.98V18H8.02V15.98ZM3.98 11.02H6V12.98H3.98ZM9 11.02H12.98V15H11.02V12.98H9ZM11.02 6H12.98V9.98H11.02ZM2.02 2.02V6H0V2.02Q0 1.17 0.59 0.59Q1.17 0 2.02 0H6V2.02ZM21.98 0Q22.83 0 23.41 0.59Q24 1.17 24 2.02V6H21.98V2.02H18V0ZM2.02 18V21.98H6V24H2.02Q1.17 24 0.59 23.41Q0 22.83 0 21.98V18ZM21.98 21.98V18H24V21.98Q24 22.83 23.41 23.41Q22.83 24 21.98 24H18V21.98Z" fill="#616161"/><path transform="translate(264.0,51.0) scale(1.0000)" d="M20.02 2.02H3.98Q3.19 2.02 2.6 2.6Q2.02 3.19 2.02 3.98V21.98L6 18H20.02Q20.81 18 21.4 17.41Q21.98 16.83 21.98 15.98V3.98Q21.98 3.19 21.4 2.6Q20.81 2.02 20.02 2.02ZM6 9H18V11.02H6ZM14.02 14.02H6V12H14.02ZM18 8.02H6V6H18Z" fill="#616161"/><rect x="18.5" y="91.5" width="134.0" height="46.0" rx="4" fill="#ffffff" stroke="#dcdcdc" stroke-width="1"/><path transform="translate(26.0,103.0) scale(0.9167)" d="M12 15Q9.84 15 7.99 15.54Q6.14 16.08 5.06 16.99Q3.98 17.91 3.98 18.98V21H20.02V18.98Q20.02 17.91 18.94 16.99Q17.86 16.08 16.01 15.54Q14.16 15 12 15ZM8.02 9Q8.02 10.64 9.19 11.81Q10.36 12.98 12 12.98Q13.64 12.98 14.81 11.81Q15.98 10.64 15.98 9ZM11.48 2.02Q11.3 2.02 11.16 2.16Q11.02 2.3 11.02 2.48V5.48H9.98V3L9.66 3.19Q9.23 3.42 8.86 3.8Q8.39 4.31 8.11 4.92Q7.73 5.77 7.73 6.75L7.55 6.84Q7.31 6.94 7.17 7.17Q6.98 7.5 6.98 8.02H17.02Q16.97 7.31 16.59 6.94Q16.41 6.8 16.27 6.75Q16.27 4.92 15.14 3.8Q14.58 3.23 14.02 3V5.48H12.98V2.48Q12.98 2.3 12.87 2.16Q12.75 2.02 12.52 2.02Z" fill="#616161"/><text x="54.0" y="110.0" font-family="Roboto, Arial, Helvetica, sans-serif" font-size="12" fill="#616161">saw_tablet</text><text x="54.0" y="126.0" font-family="Roboto, Arial, Helvetica, sans-serif" font-size="12" fill="#616161">Saw [Saw line]</text><rect x="163.5" y="91.5" width="134.0" height="46.0" rx="4" fill="#ffffff" stroke="#dcdcdc" stroke-width="1"/><path transform="translate(171.0,103.0) scale(0.9167)" d="M6 21V8.02Q6 7.17 6.59 6.59Q7.17 6 8.02 6L15.98 3V6Q16.83 6 17.41 6.59Q18 7.17 18 8.02V21H12V15.98H8.02V21ZM14.02 18.98H15.98V15.98H14.02ZM8.02 12.98H9.98V9H8.02ZM12 12.98H15.98V9H12Z" fill="#616161"/><text x="199.0" y="119.0" font-family="Roboto, Arial, Helvetica, sans-serif" font-size="14" fill="#616161">Vianen</text><rect x="18.5" y="149.5" width="279.0" height="49.0" rx="4" fill="#ffffff" stroke="#dcdcdc" stroke-width="1"/><path transform="translate(54.7,156.0) scale(0.8333)" d="M3.98 6H20.02V15.98H3.98ZM20.02 18Q20.81 18 21.4 17.41Q21.98 16.83 21.98 15.98V6Q21.98 5.16 21.4 4.57Q20.81 3.98 20.02 3.98H3.98Q3.19 3.98 2.6 4.57Q2.02 5.16 2.02 6V15.98Q2.02 16.83 2.6 17.41Q3.19 18 3.98 18H0V20.02H24V18Z" fill="#616161"/><text x="64.7" y="189.0" font-family="Roboto, Arial, Helvetica, sans-serif" font-size="11" fill="#616161" font-weight="700" text-anchor="middle" letter-spacing="0.8">MANAGE</text><rect x="112.3" y="150.0" width="91.3" height="48.0" fill="#ea590c" opacity="0.13"/><line x1="111.3" y1="149.0" x2="111.3" y2="199.0" stroke="#dcdcdc" stroke-width="1"/><path transform="translate(148.0,156.0) scale(0.8333)" d="M6 3.98V11.02H3.98Q3.19 11.02 2.6 11.6Q2.02 12.19 2.02 12.98V17.02Q2.02 18.23 2.88 19.12Q3.75 20.02 4.99 20.02Q6.23 20.02 7.12 19.12Q8.02 18.23 8.02 17.02H9.98Q9.98 18.23 10.88 19.12Q11.77 20.02 13.01 20.02Q14.25 20.02 15.12 19.12Q15.98 18.23 15.98 17.02V12.98L12 3.98ZM17.02 5.02V18.98H21.98V17.48H18.52V5.02ZM7.5 5.48H11.2L14.48 12.98H7.5ZM5.02 15.52Q5.62 15.52 6.07 15.94Q6.52 16.36 6.52 16.99Q6.52 17.62 6.07 18.07Q5.62 18.52 4.99 18.52Q4.36 18.52 3.94 18.07Q3.52 17.62 3.52 16.99Q3.52 16.36 3.94 15.94Q4.36 15.52 5.02 15.52ZM12.98 15.52Q13.64 15.52 14.06 15.94Q14.48 16.36 14.48 16.99Q14.48 17.62 14.06 18.07Q13.64 18.52 13.01 18.52Q12.38 18.52 11.93 18.07Q11.48 17.62 11.48 16.99Q11.48 16.36 11.93 15.94Q12.38 15.52 12.98 15.52Z" fill="#ea590c"/><text x="158.0" y="189.0" font-family="Roboto, Arial, Helvetica, sans-serif" font-size="11" fill="#ea590c" font-weight="700" text-anchor="middle" letter-spacing="0.8">LOGISTICS</text><line x1="204.7" y1="149.0" x2="204.7" y2="199.0" stroke="#dcdcdc" stroke-width="1"/><path transform="translate(241.3,156.0) scale(0.8333)" d="M2 4.2L2.43 2.6L3.6 1.43L5.2 1L14.6 1L15.05 1.12L15.38 1.45L15.5 1.9L15.5 8.1L15.38 8.55L15.05 8.88L14.6 9L5.2 9L3.6 8.57L2.43 7.4L2 5.8ZM15.5 2L17.6 3.95L22 3.95L22 6.05L17.6 6.05L15.5 8ZM6 8.5L10.5 8.5L10.5 18L6 18ZM18.1 5.8L21.6 5.8L11.32 23.6L7.82 23.6ZM4.5 18.7L4.66 18.1L5.1 17.66L5.7 17.5L10.7 17.5L11.3 17.66L11.74 18.1L11.9 18.7L11.74 19.3L11.3 19.74L10.7 19.9L5.7 19.9L5.1 19.74L4.66 19.3ZM11 9.24L12.6 11.44L11.6 12.16L10 9.96Z" fill="#616161"/><text x="251.3" y="189.0" font-family="Roboto, Arial, Helvetica, sans-serif" font-size="11" fill="#616161" font-weight="700" text-anchor="middle" letter-spacing="0.8">PROD</text><rect x="18.5" y="215.5" width="279.0" height="33.0" rx="4" fill="none" stroke="#ea590c" stroke-width="1"/><path transform="translate(69.3,223.5) scale(0.7083)" d="M17.02 21 14.25 18 15.42 16.83 17.02 18.42 20.58 14.86 21.75 16.27ZM12.8 21H5.02Q4.17 21 3.59 20.41Q3 19.83 3 18.98V5.02Q3 4.17 3.59 3.59Q4.17 3 5.02 3H18.98Q19.83 3 20.41 3.59Q21 4.17 21 5.02V12.8Q20.06 12.23 18.98 12.09V5.02H5.02V18.98H12.09Q12.23 20.06 12.8 21ZM12 17.02H6.98V15H12ZM14.67 12.98H6.98V11.02H17.02V12.09Q15.75 12.28 14.67 12.98ZM17.02 9H6.98V6.98H17.02Z" fill="#ea590c"/><text x="92.3" y="236.3" font-family="Roboto, Arial, Helvetica, sans-serif" font-size="12" fill="#ea590c" font-weight="700" letter-spacing="0.9">SELECT FROM REPORT</text><path transform="translate(16.0,268.0) scale(0.9167)" d="M6.98 9.98 12 15 17.02 9.98Z" fill="#616161"/><rect x="40.0" y="269.0" width="18.0" height="18.0" rx="3" fill="#ea590c"/><path d="M44 278 l4 4 l8 -8" fill="none" stroke="#fff" stroke-width="2.2" stroke-linejoin="round"/><text x="68.0" y="283.0" font-family="Roboto, Arial, Helvetica, sans-serif" font-size="13" fill="#212121">Phase 1</text><path transform="translate(38.0,302.0) scale(0.9167)" d="M6.98 9.98 12 15 17.02 9.98Z" fill="#616161"/><rect x="62.0" y="303.0" width="18.0" height="18.0" rx="3" fill="#ea590c"/><path d="M66 312 l4 4 l8 -8" fill="none" stroke="#fff" stroke-width="2.2" stroke-linejoin="round"/><text x="90.0" y="317.0" font-family="Roboto, Arial, Helvetica, sans-serif" font-size="13" fill="#212121">Batch 3</text><rect x="66.0" y="337.0" width="18.0" height="18.0" rx="3" fill="#ea590c"/><path d="M70 346 l4 4 l8 -8" fill="none" stroke="#fff" stroke-width="2.2" stroke-linejoin="round"/><text x="94.0" y="351.0" font-family="Roboto, Arial, Helvetica, sans-serif" font-size="13" fill="#212121">W-12 [1a2b3c4d]</text><rect x="222.2" y="336.5" width="47.2" height="21.0" rx="11" fill="none" stroke="#ea590c" stroke-width="1"/><text x="245.9" y="351.0" font-family="Consolas, monospace" font-size="12" fill="#ea590c" font-weight="600" text-anchor="middle">12/25</text><path transform="translate(276.0,338.0) scale(0.7500)" d="M21 6.98 9 18.98 3.52 13.5 4.92 12.09 9 16.17 19.59 5.58Z" fill="#4CAF50"/><rect x="66.0" y="371.0" width="18.0" height="18.0" rx="3" fill="#ea590c"/><path d="M70 380 l4 4 l8 -8" fill="none" stroke="#fff" stroke-width="2.2" stroke-linejoin="round"/><text x="94.0" y="385.0" font-family="Roboto, Arial, Helvetica, sans-serif" font-size="13" fill="#9e9e9e">W-13 [5e6f7a8b]</text><rect x="210.0" y="370.5" width="59.5" height="21.0" rx="11" fill="none" stroke="#4CAF50" stroke-width="1"/><text x="239.8" y="385.0" font-family="Consolas, monospace" font-size="12" fill="#4CAF50" font-weight="600" text-anchor="middle">✓ 25/25</text><rect x="66.0" y="405.0" width="18.0" height="18.0" rx="3" fill="#ea590c"/><path d="M70 414 l4 4 l8 -8" fill="none" stroke="#fff" stroke-width="2.2" stroke-linejoin="round"/><text x="94.0" y="419.0" font-family="Roboto, Arial, Helvetica, sans-serif" font-size="13" fill="#212121">W-14 [9c0d1e2f]</text><rect x="229.0" y="404.5" width="40.5" height="21.0" rx="11" fill="none" stroke="#9e9e9e" stroke-width="1"/><text x="249.2" y="419.0" font-family="Consolas, monospace" font-size="12" fill="#9e9e9e" font-weight="600" text-anchor="middle">0/31</text><rect x="67.0" y="440.0" width="16.0" height="16.0" rx="2" fill="#ffffff" stroke="#616161" stroke-width="2"/><text x="94.0" y="453.0" font-family="Roboto, Arial, Helvetica, sans-serif" font-size="13" fill="#9e9e9e">W-15 [3a4b5c6d]</text><rect x="217.5" y="438.5" width="52.0" height="21.0" rx="11" fill="none" stroke="#4CAF50" stroke-width="1"/><text x="243.5" y="453.0" font-family="Roboto, Arial, Helvetica, sans-serif" font-size="12" fill="#4CAF50" font-weight="600" text-anchor="middle">Ready</text><path transform="translate(38.0,472.0) scale(0.9167)" d="M6.98 9.98 12 15 17.02 9.98Z" fill="#616161"/><rect x="63.0" y="474.0" width="16.0" height="16.0" rx="2" fill="#ffffff" stroke="#616161" stroke-width="2"/><text x="90.0" y="487.0" font-family="Roboto, Arial, Helvetica, sans-serif" font-size="13" fill="#212121">Batch 4</text><circle cx="292.0" cy="347.0" r="14" fill="#ffffff"/><circle cx="292.0" cy="347.0" r="12" fill="#7c3aed"/><text x="292.0" y="351.6" font-family="Roboto, Arial, Helvetica, sans-serif" font-size="12.600000000000001" fill="#fff" font-weight="700" text-anchor="middle">1</text><rect x="324.0" y="53.0" width="67.5" height="36.0" rx="4" fill="#ea590c"/><text x="338.0" y="75.7" font-family="Roboto, Arial, Helvetica, sans-serif" font-size="13" fill="#ffffff" font-weight="700">timber</text><rect x="410.5" y="53.5" width="57.2" height="35.0" rx="4" fill="none" stroke="#ea590c" stroke-width="1"/><text x="424.0" y="75.7" font-family="Roboto, Arial, Helvetica, sans-serif" font-size="13" fill="#ea590c" font-weight="700">plate</text><rect x="324.0" y="99.0" width="120.8" height="36.0" rx="4" fill="#ea590c"/><path transform="translate(338.0,108.0) scale(0.7500)" d="M3.98 6V18.98H20.02V6ZM18 17.02H6V8.02H18Z" fill="#ffffff"/><text x="362.0" y="121.7" font-family="Roboto, Arial, Helvetica, sans-serif" font-size="13" fill="#ffffff" font-weight="700">C24 45*145</text><rect x="453.2" y="99.5" width="119.8" height="35.0" rx="4" fill="none" stroke="#ea590c" stroke-width="1"/><path transform="translate(466.8,108.0) scale(0.7500)" d="M3.98 6V18.98H20.02V6ZM18 17.02H6V8.02H18Z" fill="#ea590c"/><text x="490.8" y="121.7" font-family="Roboto, Arial, Helvetica, sans-serif" font-size="13" fill="#ea590c" font-weight="700">C24 45*195</text><rect x="582.0" y="99.5" width="119.8" height="35.0" rx="4" fill="none" stroke="#ea590c" stroke-width="1"/><path transform="translate(595.5,108.0) scale(0.7500)" d="M3.98 6V18.98H20.02V6ZM18 17.02H6V8.02H18Z" fill="#ea590c"/><text x="619.5" y="121.7" font-family="Roboto, Arial, Helvetica, sans-serif" font-size="13" fill="#ea590c" font-weight="700">C24 38*120</text><circle cx="720.2" cy="97.0" r="14" fill="#ffffff"/><circle cx="720.2" cy="97.0" r="12" fill="#7c3aed"/><text x="720.2" y="101.6" font-family="Roboto, Arial, Helvetica, sans-serif" font-size="12.600000000000001" fill="#fff" font-weight="700" text-anchor="middle">2</text><text x="336.0" y="171.3" font-family="Roboto, Arial, Helvetica, sans-serif" font-size="12" fill="#616161" font-weight="700">Reference</text><text x="512.0" y="171.3" font-family="Roboto, Arial, Helvetica, sans-serif" font-size="12" fill="#616161" font-weight="700" text-anchor="end">Length</text><text x="562.0" y="171.3" font-family="Roboto, Arial, Helvetica, sans-serif" font-size="12" fill="#616161" font-weight="700" text-anchor="end">#</text><text x="586.0" y="171.3" font-family="Roboto, Arial, Helvetica, sans-serif" font-size="12" fill="#616161" font-weight="700">Counts by Constructible</text><text x="824.0" y="171.3" font-family="Roboto, Arial, Helvetica, sans-serif" font-size="12" fill="#616161" font-weight="700" text-anchor="end">Ready Parts</text><line x1="324.0" y1="185.0" x2="836.0" y2="185.0" stroke="#dcdcdc" stroke-width="1"/><rect x="324.0" y="185.0" width="512.0" height="40.0" fill="#f2f2f2"/><path transform="translate(330.0,194.0) scale(0.9167)" d="M6.98 9.98 12 15 17.02 9.98Z" fill="#616161"/><text x="356.0" y="210.0" font-family="Roboto, Arial, Helvetica, sans-serif" font-size="13" fill="#212121" font-weight="700">Zone 0</text><rect x="416.5" y="194.5" width="105.8" height="21.0" rx="11.0" fill="none" stroke="#616161" stroke-width="1"/><text x="426.0" y="209.0" font-family="Roboto, Arial, Helvetica, sans-serif" font-size="11" fill="#616161" font-weight="500">3 Rows · 12 Parts</text><rect x="554.0" y="202.0" width="160.0" height="6.0" rx="3.0" fill="#ea590c" opacity="0.18"/><rect x="554.0" y="202.0" width="92.8" height="6.0" rx="3.0" fill="#ea590c"/><text x="724.0" y="210.0" font-family="Roboto, Arial, Helvetica, sans-serif" font-size="12" fill="#616161">58 %</text><circle cx="784.0" cy="205.0" r="14" fill="#ffffff"/><circle cx="784.0" cy="205.0" r="12" fill="#7c3aed"/><text x="784.0" y="209.6" font-family="Roboto, Arial, Helvetica, sans-serif" font-size="12.600000000000001" fill="#fff" font-weight="700" text-anchor="middle">3</text><text x="336.0" y="251.7" font-family="Roboto, Arial, Helvetica, sans-serif" font-size="13" fill="#ea590c" font-weight="700">114</text><text x="512.0" y="251.7" font-family="Roboto, Arial, Helvetica, sans-serif" font-size="13" fill="#212121" text-anchor="end">5630</text><text x="562.0" y="251.7" font-family="Roboto, Arial, Helvetica, sans-serif" font-size="13" fill="#212121" text-anchor="end">4</text><rect x="584.5" y="235.5" width="54.7" height="19.0" rx="9" fill="none" stroke="#ea590c" stroke-width="1"/><text x="591.0" y="249.0" font-family="Roboto, Arial, Helvetica, sans-serif" font-size="11" fill="#ea590c">W-12 ×2</text><rect x="644.2" y="235.5" width="54.7" height="19.0" rx="9" fill="none" stroke="#4CAF50" stroke-width="1"/><text x="650.7" y="249.0" font-family="Roboto, Arial, Helvetica, sans-serif" font-size="11" fill="#4CAF50">W-13 ×2</text><g opacity="1"><circle cx="738.0" cy="247.0" r="13" fill="#fff" stroke="#c90202" stroke-width="1.2"/><path transform="translate(729.0,238.0) scale(0.7500)" d="M18.98 12.98H5.02V11.02H18.98Z" fill="#c90202"/><text x="774.0" y="254.0" font-family="Roboto, Arial, Helvetica, sans-serif" font-size="19" fill="#212121" font-weight="500" text-anchor="middle">3</text><circle cx="810.0" cy="247.0" r="13" fill="#fff" stroke="#4CAF50" stroke-width="1.2"/><path transform="translate(801.0,238.0) scale(0.7500)" d="M18.98 12.98H12.98V18.98H11.02V12.98H5.02V11.02H11.02V5.02H12.98V11.02H18.98Z" fill="#4CAF50"/></g><line x1="324.0" y1="269.0" x2="836.0" y2="269.0" stroke="#e8e8e8" stroke-width="1"/><text x="336.0" y="295.7" font-family="Roboto, Arial, Helvetica, sans-serif" font-size="13" fill="#ea590c" font-weight="700">121</text><path transform="translate(363.8,283.0) scale(0.6667)" d="M3 0.98Q2.16 0.98 1.57 1.57Q0.98 2.16 0.98 3V14.02Q0.98 14.81 1.57 15.4Q2.16 15.98 3 15.98H6.98V20.02Q6.98 20.81 7.57 21.4Q8.16 21.98 9 21.98H20.02Q20.81 21.98 21.4 21.4Q21.98 20.81 21.98 20.02V9Q21.98 8.16 21.4 7.57Q20.81 6.98 20.02 6.98H15.98V3Q15.98 2.16 15.4 1.57Q14.81 0.98 14.02 0.98ZM3 3H14.02V9H20.02V20.02H9V14.02H3Z" fill="#ea590c"/><text x="512.0" y="295.7" font-family="Roboto, Arial, Helvetica, sans-serif" font-size="13" fill="#212121" text-anchor="end">5380</text><text x="562.0" y="295.7" font-family="Roboto, Arial, Helvetica, sans-serif" font-size="13" fill="#212121" text-anchor="end">4</text><rect x="584.5" y="279.5" width="54.7" height="19.0" rx="9" fill="none" stroke="#ea590c" stroke-width="1"/><text x="591.0" y="293.0" font-family="Roboto, Arial, Helvetica, sans-serif" font-size="11" fill="#ea590c">W-12 ×2</text><rect x="644.2" y="279.5" width="54.7" height="19.0" rx="9" fill="none" stroke="#9e9e9e" stroke-width="1"/><text x="650.7" y="293.0" font-family="Roboto, Arial, Helvetica, sans-serif" font-size="11" fill="#9e9e9e">W-14 ×2</text><g opacity="1"><circle cx="738.0" cy="291.0" r="13" fill="#fff" stroke="#c90202" stroke-width="1.2"/><path transform="translate(729.0,282.0) scale(0.7500)" d="M18.98 12.98H5.02V11.02H18.98Z" fill="#c90202"/><text x="774.0" y="298.0" font-family="Roboto, Arial, Helvetica, sans-serif" font-size="19" fill="#212121" font-weight="500" text-anchor="middle">2</text><circle cx="810.0" cy="291.0" r="13" fill="#fff" stroke="#4CAF50" stroke-width="1.2"/><path transform="translate(801.0,282.0) scale(0.7500)" d="M18.98 12.98H12.98V18.98H11.02V12.98H5.02V11.02H11.02V5.02H12.98V11.02H18.98Z" fill="#4CAF50"/></g><line x1="324.0" y1="313.0" x2="836.0" y2="313.0" stroke="#e8e8e8" stroke-width="1"/><text x="336.0" y="339.7" font-family="Roboto, Arial, Helvetica, sans-serif" font-size="13" fill="#ea590c" font-weight="700">98</text><text x="512.0" y="339.7" font-family="Roboto, Arial, Helvetica, sans-serif" font-size="13" fill="#212121" text-anchor="end">2690</text><text x="562.0" y="339.7" font-family="Roboto, Arial, Helvetica, sans-serif" font-size="13" fill="#212121" text-anchor="end">4</text><rect x="584.5" y="323.5" width="54.7" height="19.0" rx="9" fill="none" stroke="#4CAF50" stroke-width="1"/><text x="591.0" y="337.0" font-family="Roboto, Arial, Helvetica, sans-serif" font-size="11" fill="#4CAF50">W-13 ×2</text><rect x="644.2" y="323.5" width="54.7" height="19.0" rx="9" fill="none" stroke="#9e9e9e" stroke-width="1"/><text x="650.7" y="337.0" font-family="Roboto, Arial, Helvetica, sans-serif" font-size="11" fill="#9e9e9e">W-14 ×2</text><g opacity="1"><circle cx="738.0" cy="335.0" r="13" fill="#fff" stroke="#c90202" stroke-width="1.2"/><path transform="translate(729.0,326.0) scale(0.7500)" d="M18.98 12.98H5.02V11.02H18.98Z" fill="#c90202"/><text x="774.0" y="342.0" font-family="Roboto, Arial, Helvetica, sans-serif" font-size="19" fill="#212121" font-weight="500" text-anchor="middle">2</text><circle cx="810.0" cy="335.0" r="13" fill="#fff" stroke="#4CAF50" stroke-width="1.2"/><path transform="translate(801.0,326.0) scale(0.7500)" d="M18.98 12.98H12.98V18.98H11.02V12.98H5.02V11.02H11.02V5.02H12.98V11.02H18.98Z" fill="#4CAF50"/></g><line x1="324.0" y1="357.0" x2="836.0" y2="357.0" stroke="#e8e8e8" stroke-width="1"/><rect x="324.0" y="225.0" width="3.0" height="44.0" fill="#ea590c"/><rect x="327.0" y="225.0" width="509.0" height="44.0" fill="#ea590c" opacity="0.07"/><rect x="324.0" y="357.0" width="512.0" height="40.0" fill="#f2f2f2"/><path transform="translate(330.0,366.0) scale(0.9167)" d="M6.98 9.98 12 15 17.02 9.98Z" fill="#616161"/><text x="356.0" y="382.0" font-family="Roboto, Arial, Helvetica, sans-serif" font-size="13" fill="#212121" font-weight="700">Zone 1</text><rect x="416.5" y="366.5" width="99.8" height="21.0" rx="11.0" fill="none" stroke="#616161" stroke-width="1"/><text x="426.0" y="381.0" font-family="Roboto, Arial, Helvetica, sans-serif" font-size="11" fill="#616161" font-weight="500">2 Rows · 8 Parts</text><rect x="544.0" y="374.0" width="160.0" height="6.0" rx="3.0" fill="#4CAF50" opacity="0.18"/><rect x="544.0" y="374.0" width="160.0" height="6.0" rx="3.0" fill="#4CAF50"/><text x="714.0" y="382.0" font-family="Roboto, Arial, Helvetica, sans-serif" font-size="12" fill="#616161">100 %</text><text x="336.0" y="423.7" font-family="Roboto, Arial, Helvetica, sans-serif" font-size="13" fill="#ea590c" font-weight="700">131</text><text x="512.0" y="423.7" font-family="Roboto, Arial, Helvetica, sans-serif" font-size="13" fill="#212121" text-anchor="end">2400</text><text x="562.0" y="423.7" font-family="Roboto, Arial, Helvetica, sans-serif" font-size="13" fill="#212121" text-anchor="end">4</text><rect x="584.5" y="407.5" width="54.7" height="19.0" rx="9" fill="none" stroke="#4CAF50" stroke-width="1"/><text x="591.0" y="421.0" font-family="Roboto, Arial, Helvetica, sans-serif" font-size="11" fill="#4CAF50">W-12 ×2</text><rect x="644.2" y="407.5" width="54.7" height="19.0" rx="9" fill="none" stroke="#4CAF50" stroke-width="1"/><text x="650.7" y="421.0" font-family="Roboto, Arial, Helvetica, sans-serif" font-size="11" fill="#4CAF50">W-14 ×2</text><g opacity="1"><circle cx="738.0" cy="419.0" r="13" fill="#fff" stroke="#c90202" stroke-width="1.2"/><path transform="translate(729.0,410.0) scale(0.7500)" d="M18.98 12.98H5.02V11.02H18.98Z" fill="#c90202"/><text x="774.0" y="426.0" font-family="Roboto, Arial, Helvetica, sans-serif" font-size="19" fill="#212121" font-weight="500" text-anchor="middle">4</text><circle cx="810.0" cy="419.0" r="13" fill="#fff" stroke="#4CAF50" stroke-width="1.2"/><path transform="translate(801.0,410.0) scale(0.7500)" d="M18.98 12.98H12.98V18.98H11.02V12.98H5.02V11.02H11.02V5.02H12.98V11.02H18.98Z" fill="#4CAF50"/></g><line x1="324.0" y1="441.0" x2="836.0" y2="441.0" stroke="#e8e8e8" stroke-width="1"/><text x="336.0" y="467.7" font-family="Roboto, Arial, Helvetica, sans-serif" font-size="13" fill="#ea590c" font-weight="700">132</text><text x="512.0" y="467.7" font-family="Roboto, Arial, Helvetica, sans-serif" font-size="13" fill="#212121" text-anchor="end">1180</text><text x="562.0" y="467.7" font-family="Roboto, Arial, Helvetica, sans-serif" font-size="13" fill="#212121" text-anchor="end">4</text><rect x="584.5" y="451.5" width="54.7" height="19.0" rx="9" fill="none" stroke="#4CAF50" stroke-width="1"/><text x="591.0" y="465.0" font-family="Roboto, Arial, Helvetica, sans-serif" font-size="11" fill="#4CAF50">W-12 ×2</text><rect x="644.2" y="451.5" width="54.7" height="19.0" rx="9" fill="none" stroke="#4CAF50" stroke-width="1"/><text x="650.7" y="465.0" font-family="Roboto, Arial, Helvetica, sans-serif" font-size="11" fill="#4CAF50">W-14 ×2</text><g opacity="1"><circle cx="738.0" cy="463.0" r="13" fill="#fff" stroke="#c90202" stroke-width="1.2"/><path transform="translate(729.0,454.0) scale(0.7500)" d="M18.98 12.98H5.02V11.02H18.98Z" fill="#c90202"/><text x="774.0" y="470.0" font-family="Roboto, Arial, Helvetica, sans-serif" font-size="19" fill="#212121" font-weight="500" text-anchor="middle">4</text><circle cx="810.0" cy="463.0" r="13" fill="#fff" stroke="#4CAF50" stroke-width="1.2"/><path transform="translate(801.0,454.0) scale(0.7500)" d="M18.98 12.98H12.98V18.98H11.02V12.98H5.02V11.02H11.02V5.02H12.98V11.02H18.98Z" fill="#4CAF50"/></g><line x1="324.0" y1="485.0" x2="836.0" y2="485.0" stroke="#e8e8e8" stroke-width="1"/><rect x="324.0" y="397.0" width="512.0" height="88.0" fill="#4CAF50" opacity="0.07"/><circle cx="736.0" cy="167.0" r="14" fill="#ffffff"/><circle cx="736.0" cy="167.0" r="12" fill="#7c3aed"/><text x="736.0" y="171.6" font-family="Roboto, Arial, Helvetica, sans-serif" font-size="12.600000000000001" fill="#fff" font-weight="700" text-anchor="middle">4</text><line x1="324.0" y1="493.0" x2="836.0" y2="493.0" stroke="#dcdcdc" stroke-width="1"/><text x="336.0" y="515.0" font-family="Roboto, Arial, Helvetica, sans-serif" font-size="13" fill="#616161">5 Rows   20 Parts   15 Ready Parts   5 Pending</text><rect x="606.0" y="507.0" width="160.0" height="8.0" rx="4.0" fill="#ea590c" opacity="0.18"/><rect x="606.0" y="507.0" width="120.0" height="8.0" rx="4.0" fill="#ea590c"/><text x="824.0" y="516.0" font-family="Roboto, Arial, Helvetica, sans-serif" font-size="13" fill="#212121" font-weight="600" text-anchor="end">75 %</text><circle cx="586.0" cy="511.0" r="14" fill="#ffffff"/><circle cx="586.0" cy="511.0" r="12" fill="#7c3aed"/><text x="586.0" y="515.6" font-family="Roboto, Arial, Helvetica, sans-serif" font-size="12.600000000000001" fill="#fff" font-weight="700" text-anchor="middle">5</text><line x1="860.0" y1="39.0" x2="860.0" y2="792.0" stroke="#e8e8e8" stroke-width="1"/><rect x="866.0" y="53.0" width="184.0" height="36.0" rx="4" fill="#ea590c" opacity="0.12"/><text x="904.5" y="75.7" font-family="Roboto, Arial, Helvetica, sans-serif" font-size="13" fill="#ea590c" font-weight="700" letter-spacing="0.9">PART DATA</text><path transform="translate(993.5,62.0) scale(0.7500)" d="M8.58 16.59 13.17 12 8.58 7.41 9.98 6 15.98 12 9.98 18Z" fill="#ea590c"/><circle cx="851.0" cy="71.0" r="14" fill="#ffffff"/><circle cx="851.0" cy="71.0" r="12" fill="#7c3aed"/><text x="851.0" y="75.6" font-family="Roboto, Arial, Helvetica, sans-serif" font-size="12.600000000000001" fill="#fff" font-weight="700" text-anchor="middle">6</text><rect x="866.5" y="101.5" width="183.0" height="216.0" rx="6" fill="#ea590c" stroke="#ea590c" stroke-width="1" opacity="0.06"/><rect x="866.5" y="101.5" width="183.0" height="216.0" rx="6" fill="none" stroke="#f4ac86" stroke-width="1"/><rect x="874.5" y="111.5" width="167.0" height="39.0" rx="4" fill="#ffffff" stroke="#dcdcdc" stroke-width="1"/><rect x="882.0" y="109.0" width="58.8" height="5.0" fill="#ffffff"/><text x="886.0" y="115.0" font-family="Roboto, Arial, Helvetica, sans-serif" font-size="11" fill="#616161">Part Batch</text><text x="886.0" y="135.7" font-family="Roboto, Arial, Helvetica, sans-serif" font-size="13" fill="#212121">PB-0042</text><path transform="translate(1010.0,119.0) scale(1.0000)" d="M6.98 9.98 12 15 17.02 9.98Z" fill="#616161"/><rect x="874.0" y="161.0" width="83.2" height="24.0" rx="12.0" fill="#ea590c" opacity="0.14"/><path transform="translate(882.0,165.5) scale(0.6250)" d="M8.02 5.16V19.12L18.98 12.14Z" fill="#ea590c"/><text x="903.0" y="177.3" font-family="Roboto, Arial, Helvetica, sans-serif" font-size="12" fill="#ea590c" font-weight="500">Working</text><path transform="translate(874.0,195.0) scale(0.5833)" d="M12 20.02Q14.16 20.02 16.01 18.94Q17.86 17.86 18.94 16.01Q20.02 14.16 20.02 12Q20.02 9.84 18.94 7.99Q17.86 6.14 16.01 5.06Q14.16 3.98 12 3.98Q9.84 3.98 7.99 5.06Q6.14 6.14 5.06 7.99Q3.98 9.84 3.98 12Q3.98 14.16 5.06 16.01Q6.14 17.86 7.99 18.94Q9.84 20.02 12 20.02ZM12 2.02Q13.97 2.02 15.82 2.77Q17.67 3.52 19.08 4.92Q20.48 6.33 21.23 8.18Q21.98 10.03 21.98 12Q21.98 13.97 21.23 15.82Q20.48 17.67 19.08 19.08Q17.67 20.48 15.82 21.23Q13.97 21.98 12 21.98Q9.28 21.98 6.98 20.65Q4.69 19.31 3.35 17.02Q2.02 14.72 2.02 12Q2.02 10.03 2.77 8.18Q3.52 6.33 4.92 4.92Q6.33 3.52 8.18 2.77Q10.03 2.02 12 2.02ZM12.52 6.98V12.23L17.02 14.91L16.27 16.17L11.02 12.98V6.98Z" fill="#616161"/><text x="892.0" y="207.0" font-family="Roboto, Arial, Helvetica, sans-serif" font-size="11" fill="#616161">08:12 · JAN · 1h05</text><rect x="874.0" y="219.0" width="168.0" height="6.0" rx="3.0" fill="#ea590c" opacity="0.18"/><rect x="874.0" y="219.0" width="126.0" height="6.0" rx="3.0" fill="#ea590c"/><text x="874.0" y="241.0" font-family="Roboto, Arial, Helvetica, sans-serif" font-size="11" fill="#616161">15/20 · 75 %</text><rect x="874.5" y="251.5" width="167.0" height="27.0" rx="4" fill="none" stroke="#616161" stroke-width="1"/><path transform="translate(927.3,258.0) scale(0.5833)" d="M14.02 18.98H18V5.02H14.02ZM6 18.98H9.98V5.02H6Z" fill="#616161"/><text x="947.3" y="269.0" font-family="Roboto, Arial, Helvetica, sans-serif" font-size="11" fill="#616161" font-weight="700" letter-spacing="0.9">PAUSE</text><rect x="874.0" y="283.0" width="82.0" height="28.0" rx="4" fill="#4CAF50" opacity="0.12"/><path transform="translate(872.8,290.0) scale(0.5833)" d="M0.42 13.41 6 18.98 7.41 17.58 1.83 12ZM22.22 5.58 11.67 16.17 7.5 12 6.05 13.41 11.67 18.98 23.67 6.98ZM18 6.98 16.59 5.58 10.22 11.95 11.67 13.36Z" fill="#4CAF50"/><text x="892.8" y="300.6" font-family="Roboto, Arial, Helvetica, sans-serif" font-size="10" fill="#4CAF50" font-weight="700" letter-spacing="0.9">ALL READY</text><rect x="960.0" y="283.0" width="82.0" height="28.0" rx="4" fill="#1976D2"/><path transform="translate(972.4,290.0) scale(0.5833)" d="M14.39 6H20.02V15.98H12.98L12.61 14.02H6.98V21H5.02V3.98H14.02ZM14.02 14.02H15.98V12H18V9.98H15.98V8.02H14.02V9.98L12.98 8.02V6H11.02V8.02H9V6H6.98V8.02H9V9.98H6.98V12H9V9.98H11.02V12H12.98V9.98L14.02 12ZM11.02 9.98V8.02H12.98V9.98ZM14.02 9.98H15.98V12H14.02Z" fill="#ffffff"/><text x="992.4" y="300.6" font-family="Roboto, Arial, Helvetica, sans-serif" font-size="10" fill="#ffffff" font-weight="700" letter-spacing="0.9">FINISH</text><circle cx="851.0" cy="171.0" r="14" fill="#ffffff"/><circle cx="851.0" cy="171.0" r="12" fill="#7c3aed"/><text x="851.0" y="175.6" font-family="Roboto, Arial, Helvetica, sans-serif" font-size="12.600000000000001" fill="#fff" font-weight="700" text-anchor="middle">7</text><rect x="866.5" y="333.5" width="183.0" height="37.0" rx="4" fill="#ffffff" stroke="#dcdcdc" stroke-width="1"/><path transform="translate(876.0,342.0) scale(0.8333)" d="M9.52 3Q11.25 3 12.75 3.87Q14.25 4.73 15.12 6.23Q15.98 7.73 15.98 9.52Q15.98 11.91 14.44 13.73L14.72 14.02H15.52L20.48 18.98L18.98 20.48L14.02 15.52V14.72L13.73 14.44Q11.91 15.98 9.52 15.98Q7.73 15.98 6.23 15.12Q4.73 14.25 3.87 12.75Q3 11.25 3 9.49Q3 7.73 3.87 6.23Q4.73 4.73 6.23 3.87Q7.73 3 9.52 3ZM9.52 5.02Q7.64 5.02 6.33 6.33Q5.02 7.64 5.02 9.52Q5.02 11.39 6.33 12.7Q7.64 14.02 9.52 14.02Q11.39 14.02 12.7 12.7Q14.02 11.39 14.02 9.52Q14.02 7.64 12.7 6.33Q11.39 5.02 9.52 5.02Z" fill="#616161"/><text x="906.0" y="356.7" font-family="Roboto, Arial, Helvetica, sans-serif" font-size="13" fill="#616161">Search</text><rect x="866.0" y="381.0" width="184.0" height="32.0" rx="4" fill="#ea590c" opacity="0.12"/><path transform="translate(913.8,389.0) scale(0.6667)" d="M18 21 14.02 17.02H17.02V6.98H14.02L18 3L21.98 6.98H18.98V17.02H21.98ZM2.02 18.98V17.02H12V18.98ZM2.02 12.98V11.02H9V12.98ZM2.02 6.98V5.02H6V6.98Z" fill="#ea590c"/><text x="935.8" y="401.0" font-family="Roboto, Arial, Helvetica, sans-serif" font-size="11" fill="#ea590c" font-weight="700">Longest first</text><rect x="866.5" y="421.5" width="183.0" height="31.0" rx="4" fill="none" stroke="#616161" stroke-width="1"/><path transform="translate(906.2,429.0) scale(0.6667)" d="M2.02 5.25 3.28 3.98 20.02 20.72 18.75 21.98 15.66 18.94Q13.88 19.5 12 19.5Q8.3 19.5 5.3 17.41Q2.3 15.33 0.98 12Q2.02 9.33 4.17 7.45ZM12 9Q13.27 9 14.13 9.87Q15 10.73 15 12Q15 12.52 14.81 12.98L11.02 9.19Q11.48 9 12 9ZM12 4.5Q15.7 4.5 18.7 6.59Q21.7 8.67 23.02 12Q21.75 15.19 18.98 17.2L17.58 15.75Q19.69 14.3 20.81 12Q19.59 9.47 17.2 7.99Q14.81 6.52 12 6.52Q10.41 6.52 8.86 6.98L7.31 5.48Q9.56 4.5 12 4.5ZM3.19 12Q4.41 14.53 6.8 16.01Q9.19 17.48 12 17.48Q13.08 17.48 14.02 17.3L11.72 15Q10.64 14.91 9.87 14.13Q9.09 13.36 9 12.28L5.58 8.86Q4.08 10.17 3.19 12Z" fill="#616161"/><text x="928.2" y="441.0" font-family="Roboto, Arial, Helvetica, sans-serif" font-size="11" fill="#616161" font-weight="700">Hide completed</text><rect x="866.0" y="461.0" width="184.0" height="32.0" rx="4" fill="#242021" opacity="0.12"/><path transform="translate(923.5,469.0) scale(0.6667)" d="M3.98 5.02V18H21V5.02ZM14.02 6.98V15.98H11.02V6.98ZM6 6.98H9V15.98H6ZM18.98 15.98H15.98V6.98H18.98Z" fill="#242021"/><text x="945.5" y="481.0" font-family="Roboto, Arial, Helvetica, sans-serif" font-size="11" fill="#242021" font-weight="700">Columns</text><circle cx="851.0" cy="397.0" r="14" fill="#ffffff"/><circle cx="851.0" cy="397.0" r="12" fill="#7c3aed"/><text x="851.0" y="401.6" font-family="Roboto, Arial, Helvetica, sans-serif" font-size="12.600000000000001" fill="#fff" font-weight="700" text-anchor="middle">8</text><rect x="866.0" y="509.0" width="91.8" height="24.0" rx="12.0" fill="#242021" opacity="0.14"/><text x="876.0" y="525.3" font-family="Roboto, Arial, Helvetica, sans-serif" font-size="12" fill="#242021" font-weight="500">Material  C24</text><line x1="1054.0" y1="39.0" x2="1054.0" y2="792.0" stroke="#dcdcdc" stroke-width="1"/><path transform="translate(1062.0,55.0) scale(0.9167)" d="M7.03 2.81 6.52 3.33 5.11 1.92 3.89 3.14 5.3 4.59 4.59 5.3 3.14 3.89 1.92 5.11 3.33 6.52 2.81 7.03 16.97 21.19 17.48 20.67 18.89 22.08 20.11 20.86 18.7 19.45 19.45 18.7 20.86 20.11 22.08 18.89 20.67 17.48 21.19 16.97 8.44 4.22ZM7.03 5.62 18.38 16.97 16.97 18.38 5.62 7.03Z" fill="#212121"/><text x="1092.0" y="72.0" font-family="Roboto, Arial, Helvetica, sans-serif" font-size="17" fill="#212121" font-weight="500">Part data</text><rect x="1062.5" y="91.5" width="56.5" height="23.0" rx="12.0" fill="none" stroke="#2196F3" stroke-width="1"/><text x="1072.0" y="107.3" font-family="Roboto, Arial, Helvetica, sans-serif" font-size="12" fill="#2196F3" font-weight="500">Zone 0</text><rect x="1126.0" y="91.5" width="64.5" height="23.0" rx="12.0" fill="none" stroke="#ea590c" stroke-width="1"/><text x="1135.5" y="107.3" font-family="Roboto, Arial, Helvetica, sans-serif" font-size="12" fill="#ea590c" font-weight="500">Ref: 114</text><rect x="1197.5" y="91.5" width="60.2" height="23.0" rx="12.0" fill="none" stroke="#ea590c" stroke-width="1"/><path transform="translate(1205.0,95.5) scale(0.6250)" d="M2.48 19.59 3.8 20.2V11.2L1.41 17.02Q1.12 17.81 1.43 18.56Q1.73 19.31 2.48 19.59ZM15.19 4.78 20.2 16.78 12.89 19.78 7.92 7.92V7.78ZM15.28 2.81Q14.81 2.81 14.48 2.91L7.08 6Q6.56 6.23 6.23 6.73Q5.91 7.22 5.91 7.76Q5.91 8.3 6 8.58L11.02 20.48Q11.2 21.09 11.7 21.4Q12.19 21.7 12.8 21.7Q13.31 21.7 13.59 21.61L21 18.52Q21.75 18.19 22.08 17.41Q22.41 16.64 22.08 15.89L17.11 3.98Q16.88 3.42 16.36 3.12Q15.84 2.81 15.28 2.81ZM10.5 9.89Q10.03 9.89 9.77 9.61Q9.52 9.33 9.52 8.88Q9.52 8.44 9.77 8.18Q10.03 7.92 10.48 7.92Q10.92 7.92 11.2 8.2Q11.48 8.48 11.48 8.88Q11.48 9.28 11.2 9.59Q10.92 9.89 10.5 9.89ZM5.91 19.78Q5.91 20.62 6.49 21.21Q7.08 21.8 7.92 21.8H9.28L5.91 13.5Z" fill="#ea590c"/><text x="1226.0" y="107.3" font-family="Roboto, Arial, Helvetica, sans-serif" font-size="12" fill="#ea590c" font-weight="500">C24</text><text x="1062.0" y="151.0" font-family="Roboto, Arial, Helvetica, sans-serif" font-size="16" fill="#212121" font-weight="500">Drawing</text><rect x="1138.0" y="133.0" width="46.5" height="26.0" rx="4" fill="#ea590c"/><path transform="translate(1146.0,139.5) scale(0.5417)" d="M21 16.5Q21 17.11 20.48 17.39L12.56 21.8Q12.33 21.98 12 21.98Q11.67 21.98 11.44 21.8L3.52 17.39Q3 17.11 3 16.5V7.5Q3 6.89 3.52 6.61L11.44 2.2Q11.67 2.02 12 2.02Q12.33 2.02 12.56 2.2L20.48 6.61Q21 6.89 21 7.5ZM12 4.17 6.05 7.5 12 10.83 17.95 7.5ZM5.02 15.89 11.02 19.31V12.56L5.02 9.19ZM18.98 15.89V9.19L12.98 12.56V19.31Z" fill="#ffffff"/><text x="1165.0" y="149.6" font-family="Roboto, Arial, Helvetica, sans-serif" font-size="10" fill="#ffffff" font-weight="700">3d</text><rect x="1188.5" y="133.0" width="81.8" height="26.0" rx="4" fill="#ea590c"/><path transform="translate(1196.5,139.5) scale(0.5417)" d="M5.02 5.02H9.98V6.98H6.98V9.98H5.02ZM14.02 5.02H18.98V9.98H17.02V6.98H14.02ZM17.02 14.02H18.98V18.98H14.02V17.02H17.02ZM9.98 17.02V18.98H5.02V14.02H6.98V17.02Z" fill="#ffffff"/><text x="1215.5" y="149.6" font-family="Roboto, Arial, Helvetica, sans-serif" font-size="10" fill="#ffffff" font-weight="700">combined</text><rect x="1274.2" y="133.0" width="57.5" height="26.0" rx="4" fill="#ea590c"/><path transform="translate(1282.2,139.5) scale(0.5417)" d="M5.02 5.02H9.98V6.98H6.98V9.98H5.02ZM14.02 5.02H18.98V9.98H17.02V6.98H14.02ZM17.02 14.02H18.98V18.98H14.02V17.02H17.02ZM9.98 17.02V18.98H5.02V14.02H6.98V17.02Z" fill="#ffffff"/><text x="1301.2" y="149.6" font-family="Roboto, Arial, Helvetica, sans-serif" font-size="10" fill="#ffffff" font-weight="700">front</text><rect x="1335.8" y="133.0" width="50.2" height="26.0" rx="4" fill="#ea590c"/><path transform="translate(1343.8,139.5) scale(0.5417)" d="M5.02 5.02H9.98V6.98H6.98V9.98H5.02ZM14.02 5.02H18.98V9.98H17.02V6.98H14.02ZM17.02 14.02H18.98V18.98H14.02V17.02H17.02ZM9.98 17.02V18.98H5.02V14.02H6.98V17.02Z" fill="#ffffff"/><text x="1362.8" y="149.6" font-family="Roboto, Arial, Helvetica, sans-serif" font-size="10" fill="#ffffff" font-weight="700">top</text><circle cx="1358.0" cy="199.0" r="14" fill="#ffffff"/><circle cx="1358.0" cy="199.0" r="12" fill="#7c3aed"/><text x="1358.0" y="203.6" font-family="Roboto, Arial, Helvetica, sans-serif" font-size="12.600000000000001" fill="#fff" font-weight="700" text-anchor="middle">9</text><rect x="1062.0" y="179.0" width="314.0" height="150.0" rx="4" fill="#fff" stroke="#dcdcdc" stroke-width="1"/><path d="M1086 238.0 H1312 L1352 270.0 H1156 V250.0 H1126 V270.0 H1086 Z" fill="#f3e3c3" stroke="#8d6e3f" stroke-width="1.4" stroke-linejoin="round"/><circle cx="1219.0" cy="254.0" r="5" fill="#fff" stroke="#8d6e3f" stroke-width="1.2"/><line x1="1086.0" y1="284.0" x2="1352.0" y2="284.0" stroke="#616161" stroke-width="1"/><text x="1219.0" y="298.0" font-family="Roboto, Arial, Helvetica, sans-serif" font-size="11" fill="#616161" text-anchor="middle">5630</text><text x="1141.0" y="232.0" font-family="Roboto, Arial, Helvetica, sans-serif" font-size="10" fill="#616161" text-anchor="middle">30</text><text x="1070.0" y="193.0" font-family="Roboto, Arial, Helvetica, sans-serif" font-size="10" fill="#9e9e9e">combined</text><rect x="1062.0" y="339.0" width="314.0" height="150.0" rx="4" fill="#fff" stroke="#dcdcdc" stroke-width="1"/><path d="M1086 398.0 H1312 L1352 430.0 H1156 V410.0 H1126 V430.0 H1086 Z" fill="#f3e3c3" stroke="#8d6e3f" stroke-width="1.4" stroke-linejoin="round"/><circle cx="1219.0" cy="414.0" r="5" fill="#fff" stroke="#8d6e3f" stroke-width="1.2"/><line x1="1086.0" y1="444.0" x2="1352.0" y2="444.0" stroke="#616161" stroke-width="1"/><text x="1219.0" y="458.0" font-family="Roboto, Arial, Helvetica, sans-serif" font-size="11" fill="#616161" text-anchor="middle">5630</text><text x="1141.0" y="392.0" font-family="Roboto, Arial, Helvetica, sans-serif" font-size="10" fill="#616161" text-anchor="middle">30</text><text x="1070.0" y="353.0" font-family="Roboto, Arial, Helvetica, sans-serif" font-size="10" fill="#9e9e9e">front</text><rect x="1062.0" y="499.0" width="314.0" height="150.0" rx="4" fill="#fff" stroke="#dcdcdc" stroke-width="1"/><path d="M1086 558.0 H1312 L1352 590.0 H1156 V570.0 H1126 V590.0 H1086 Z" fill="#f3e3c3" stroke="#8d6e3f" stroke-width="1.4" stroke-linejoin="round"/><circle cx="1219.0" cy="574.0" r="5" fill="#fff" stroke="#8d6e3f" stroke-width="1.2"/><line x1="1086.0" y1="604.0" x2="1352.0" y2="604.0" stroke="#616161" stroke-width="1"/><text x="1219.0" y="618.0" font-family="Roboto, Arial, Helvetica, sans-serif" font-size="11" fill="#616161" text-anchor="middle">5630</text><text x="1141.0" y="552.0" font-family="Roboto, Arial, Helvetica, sans-serif" font-size="10" fill="#616161" text-anchor="middle">30</text><text x="1070.0" y="513.0" font-family="Roboto, Arial, Helvetica, sans-serif" font-size="10" fill="#9e9e9e">top</text></svg>
