<svg xmlns="http://www.w3.org/2000/svg" viewBox="0 0 900 330" width="900" height="330" role="img" aria-label="Mill directions: contour and holes, on each face."><rect x="0.0" y="0.0" width="900.0" height="330.0" fill="#ffffff"/><text x="220.0" y="30.0" font-family="Roboto, Arial, Helvetica, sans-serif" font-size="14" fill="#1976D2" font-weight="700" text-anchor="middle">Inside face (negative zones)</text><rect x="40.0" y="50.0" width="360.0" height="220.0" rx="6" fill="#fafafa" stroke="#dcdcdc" stroke-width="1"/><rect x="55.0" y="65.0" width="330.0" height="190.0" rx="4" fill="none" stroke="#1976D2" stroke-width="2.5"/><line x1="232.0" y1="65.0" x2="214.0" y2="65.0" stroke="#1976D2" stroke-width="2.5"/><path d="M208.0 65.0 L217.0 70.0 L217.0 60.0 Z" fill="#1976D2"/><line x1="385.0" y1="172.0" x2="385.0" y2="154.0" stroke="#1976D2" stroke-width="2.5"/><path d="M385.0 148.0 L380.0 157.0 L390.0 157.0 Z" fill="#1976D2"/><line x1="208.0" y1="255.0" x2="226.0" y2="255.0" stroke="#1976D2" stroke-width="2.5"/><path d="M232.0 255.0 L223.0 250.0 L223.0 260.0 Z" fill="#1976D2"/><line x1="55.0" y1="148.0" x2="55.0" y2="166.0" stroke="#1976D2" stroke-width="2.5"/><path d="M55.0 172.0 L60.0 163.0 L50.0 163.0 Z" fill="#1976D2"/><rect x="105.0" y="105.0" width="90.0" height="110.0" rx="4" fill="none" stroke="#1976D2" stroke-width="2.5"/><line x1="138.0" y1="105.0" x2="156.0" y2="105.0" stroke="#1976D2" stroke-width="2.5"/><path d="M162.0 105.0 L153.0 100.0 L153.0 110.0 Z" fill="#1976D2"/><line x1="195.0" y1="148.0" x2="195.0" y2="166.0" stroke="#1976D2" stroke-width="2.5"/><path d="M195.0 172.0 L200.0 163.0 L190.0 163.0 Z" fill="#1976D2"/><line x1="162.0" y1="215.0" x2="144.0" y2="215.0" stroke="#1976D2" stroke-width="2.5"/><path d="M138.0 215.0 L147.0 220.0 L147.0 210.0 Z" fill="#1976D2"/><line x1="105.0" y1="172.0" x2="105.0" y2="154.0" stroke="#1976D2" stroke-width="2.5"/><path d="M105.0 148.0 L100.0 157.0 L110.0 157.0 Z" fill="#1976D2"/><circle cx="310.0" cy="150.0" r="22" fill="none" stroke="#1976D2" stroke-width="2"/><text x="220.0" y="296.0" font-family="Roboto, Arial, Helvetica, sans-serif" font-size="12" fill="#616161" text-anchor="middle">Contour: counter clockwise   ·   Holes: clockwise</text><circle cx="220.0" cy="52.0" r="14" fill="#ffffff"/><circle cx="220.0" cy="52.0" r="12" fill="#7c3aed"/><text x="220.0" y="56.6" font-family="Roboto, Arial, Helvetica, sans-serif" font-size="12.600000000000001" fill="#fff" font-weight="700" text-anchor="middle">1</text><circle cx="150.0" cy="96.0" r="14" fill="#ffffff"/><circle cx="150.0" cy="96.0" r="12" fill="#7c3aed"/><text x="150.0" y="100.6" font-family="Roboto, Arial, Helvetica, sans-serif" font-size="12.600000000000001" fill="#fff" font-weight="700" text-anchor="middle">2</text><circle cx="340.0" cy="128.0" r="14" fill="#ffffff"/><circle cx="340.0" cy="128.0" r="12" fill="#7c3aed"/><text x="340.0" y="132.6" font-family="Roboto, Arial, Helvetica, sans-serif" font-size="12.600000000000001" fill="#fff" font-weight="700" text-anchor="middle">3</text><text x="660.0" y="30.0" font-family="Roboto, Arial, Helvetica, sans-serif" font-size="14" fill="#4CAF50" font-weight="700" text-anchor="middle">Outside face (positive zones)</text><rect x="480.0" y="50.0" width="360.0" height="220.0" rx="6" fill="#fafafa" stroke="#dcdcdc" stroke-width="1"/><rect x="495.0" y="65.0" width="330.0" height="190.0" rx="4" fill="none" stroke="#4CAF50" stroke-width="2.5"/><line x1="648.0" y1="65.0" x2="666.0" y2="65.0" stroke="#4CAF50" stroke-width="2.5"/><path d="M672.0 65.0 L663.0 60.0 L663.0 70.0 Z" fill="#4CAF50"/><line x1="825.0" y1="148.0" x2="825.0" y2="166.0" stroke="#4CAF50" stroke-width="2.5"/><path d="M825.0 172.0 L830.0 163.0 L820.0 163.0 Z" fill="#4CAF50"/><line x1="672.0" y1="255.0" x2="654.0" y2="255.0" stroke="#4CAF50" stroke-width="2.5"/><path d="M648.0 255.0 L657.0 260.0 L657.0 250.0 Z" fill="#4CAF50"/><line x1="495.0" y1="172.0" x2="495.0" y2="154.0" stroke="#4CAF50" stroke-width="2.5"/><path d="M495.0 148.0 L490.0 157.0 L500.0 157.0 Z" fill="#4CAF50"/><rect x="545.0" y="105.0" width="90.0" height="110.0" rx="4" fill="none" stroke="#4CAF50" stroke-width="2.5"/><line x1="602.0" y1="105.0" x2="584.0" y2="105.0" stroke="#4CAF50" stroke-width="2.5"/><path d="M578.0 105.0 L587.0 110.0 L587.0 100.0 Z" fill="#4CAF50"/><line x1="635.0" y1="172.0" x2="635.0" y2="154.0" stroke="#4CAF50" stroke-width="2.5"/><path d="M635.0 148.0 L630.0 157.0 L640.0 157.0 Z" fill="#4CAF50"/><line x1="578.0" y1="215.0" x2="596.0" y2="215.0" stroke="#4CAF50" stroke-width="2.5"/><path d="M602.0 215.0 L593.0 210.0 L593.0 220.0 Z" fill="#4CAF50"/><line x1="545.0" y1="148.0" x2="545.0" y2="166.0" stroke="#4CAF50" stroke-width="2.5"/><path d="M545.0 172.0 L550.0 163.0 L540.0 163.0 Z" fill="#4CAF50"/><circle cx="750.0" cy="150.0" r="22" fill="none" stroke="#4CAF50" stroke-width="2"/><text x="660.0" y="296.0" font-family="Roboto, Arial, Helvetica, sans-serif" font-size="12" fill="#616161" text-anchor="middle">Contour: clockwise   ·   Holes: counter clockwise</text><circle cx="660.0" cy="52.0" r="14" fill="#ffffff"/><circle cx="660.0" cy="52.0" r="12" fill="#7c3aed"/><text x="660.0" y="56.6" font-family="Roboto, Arial, Helvetica, sans-serif" font-size="12.600000000000001" fill="#fff" font-weight="700" text-anchor="middle">4</text><circle cx="590.0" cy="96.0" r="14" fill="#ffffff"/><circle cx="590.0" cy="96.0" r="12" fill="#7c3aed"/><text x="590.0" y="100.6" font-family="Roboto, Arial, Helvetica, sans-serif" font-size="12.600000000000001" fill="#fff" font-weight="700" text-anchor="middle">5</text><circle cx="780.0" cy="128.0" r="14" fill="#ffffff"/><circle cx="780.0" cy="128.0" r="12" fill="#7c3aed"/><text x="780.0" y="132.6" font-family="Roboto, Arial, Helvetica, sans-serif" font-size="12.600000000000001" fill="#fff" font-weight="700" text-anchor="middle">6</text></svg>
