<svg xmlns="http://www.w3.org/2000/svg" viewBox="0 0 900 460" width="900" height="460" role="img" aria-label="The 3D model and its controls."><rect x="0.0" y="0.0" width="900.0" height="460.0" fill="#eceff1"/><text x="16.0" y="28.0" font-family="Roboto, Arial, Helvetica, sans-serif" font-size="15" fill="#212121" font-weight="500">3D | W-12</text><rect x="592.0" y="44.0" width="152.0" height="36.0" rx="4" fill="#ffffff" stroke="#dcdcdc" stroke-width="1"/><text x="611.0" y="67.0" font-family="Roboto, Arial, Helvetica, sans-serif" font-size="13" fill="#616161" font-weight="600" text-anchor="middle">-1</text><rect x="631.0" y="45.0" width="36.0" height="34.0" fill="#ea590c" opacity="0.15"/><text x="649.0" y="67.0" font-family="Roboto, Arial, Helvetica, sans-serif" font-size="13" fill="#ea590c" font-weight="600" text-anchor="middle">0</text><rect x="669.0" y="45.0" width="36.0" height="34.0" fill="#ea590c" opacity="0.15"/><text x="687.0" y="67.0" font-family="Roboto, Arial, Helvetica, sans-serif" font-size="13" fill="#ea590c" font-weight="600" text-anchor="middle">1</text><text x="725.0" y="67.0" font-family="Roboto, Arial, Helvetica, sans-serif" font-size="13" fill="#616161" font-weight="600" text-anchor="middle">2</text><path transform="translate(764.0,50.0) scale(1.0000)" d="M1.41 18.38 3.14 16.59 4.59 18 5.62 16.97 4.22 15.56 5.62 14.11 8.11 16.59 9.19 15.56 6.7 13.08 8.11 11.67 9.52 13.08 10.59 12 9.19 10.59 10.59 9.19 13.08 11.67 14.11 10.59 11.67 8.11 13.08 6.7 14.48 8.11 15.56 7.03 14.11 5.62 15.56 4.22 18 6.7 19.08 5.62 16.59 3.14 18.38 1.41 22.59 5.62 5.62 22.59Z" fill="#212121"/><path transform="translate(808.0,50.0) scale(1.0000)" d="M2.02 20.02V21.98H21.98V20.02H12.98V5.81L18.52 11.34L19.92 9.94L12 2.02L4.08 9.94L5.48 11.34L11.02 5.81V20.02Z" fill="#212121"/><path transform="translate(852.0,50.0) scale(1.0000)" d="M12 9Q10.73 9 9.87 9.87Q9 10.73 9 12Q9 13.27 9.87 14.13Q10.73 15 12 15Q13.27 15 14.13 14.13Q15 13.27 15 12Q15 10.73 14.13 9.87Q13.27 9 12 9ZM18.98 18.98H15V21H18.98Q19.83 21 20.41 20.41Q21 19.83 21 18.98V15H18.98ZM18.98 3H15V5.02H18.98V9H21V5.02Q21 4.17 20.41 3.59Q19.83 3 18.98 3ZM5.02 5.02H9V3H5.02Q4.17 3 3.59 3.59Q3 4.17 3 5.02V9H5.02ZM5.02 15H3V18.98Q3 19.83 3.59 20.41Q4.17 21 5.02 21H9V18.98H5.02Z" fill="#212121"/><rect x="724.5" y="90.5" width="75.0" height="29.0" rx="4" fill="none" stroke="#212121" stroke-width="1"/><text x="741.2" y="109.0" font-family="Roboto, Arial, Helvetica, sans-serif" font-size="11" fill="#212121" font-weight="700" letter-spacing="0.9">FRONT</text><rect x="806.5" y="90.5" width="75.0" height="29.0" rx="4" fill="none" stroke="#212121" stroke-width="1"/><text x="826.6" y="109.0" font-family="Roboto, Arial, Helvetica, sans-serif" font-size="11" fill="#212121" font-weight="700" letter-spacing="0.9">BACK</text><circle cx="668.0" cy="24.0" r="14" fill="#ffffff"/><circle cx="668.0" cy="24.0" r="12" fill="#7c3aed"/><text x="668.0" y="28.6" font-family="Roboto, Arial, Helvetica, sans-serif" font-size="12.600000000000001" fill="#fff" font-weight="700" text-anchor="middle">1</text><circle cx="776.0" cy="24.0" r="14" fill="#ffffff"/><circle cx="776.0" cy="24.0" r="12" fill="#7c3aed"/><text x="776.0" y="28.6" font-family="Roboto, Arial, Helvetica, sans-serif" font-size="12.600000000000001" fill="#fff" font-weight="700" text-anchor="middle">2</text><circle cx="820.0" cy="24.0" r="14" fill="#ffffff"/><circle cx="820.0" cy="24.0" r="12" fill="#7c3aed"/><text x="820.0" y="28.6" font-family="Roboto, Arial, Helvetica, sans-serif" font-size="12.600000000000001" fill="#fff" font-weight="700" text-anchor="middle">3</text><circle cx="864.0" cy="24.0" r="14" fill="#ffffff"/><circle cx="864.0" cy="24.0" r="12" fill="#7c3aed"/><text x="864.0" y="28.6" font-family="Roboto, Arial, Helvetica, sans-serif" font-size="12.600000000000001" fill="#fff" font-weight="700" text-anchor="middle">4</text><circle cx="708.0" cy="105.0" r="14" fill="#ffffff"/><circle cx="708.0" cy="105.0" r="12" fill="#7c3aed"/><text x="708.0" y="109.6" font-family="Roboto, Arial, Helvetica, sans-serif" font-size="12.600000000000001" fill="#fff" font-weight="700" text-anchor="middle">5</text><path d="M549.4 271.8 L549.4 100.8 L551.0 101.7 L551.0 272.7 Z" fill="#6f8b78" stroke="#33333355" stroke-width="0.8" stroke-linejoin="round" opacity="0.85"/><path d="M90.0 249.0 L549.4 100.8 L551.0 101.7 L91.6 249.9 Z" fill="#a0c8ac" stroke="#33333355" stroke-width="0.8" stroke-linejoin="round" opacity="0.85"/><path d="M91.6 420.9 L551.0 272.7 L551.0 101.7 L91.6 249.9 Z" fill="#8fb39a" stroke="#33333355" stroke-width="0.8" stroke-linejoin="round" opacity="0.85"/><path d="M551.0 272.7 L551.0 263.2 L564.6 271.1 L564.6 280.6 Z" fill="#1d8f78" stroke="#33333355" stroke-width="0.8" stroke-linejoin="round"/><path d="M91.6 411.4 L551.0 263.2 L564.6 271.1 L105.2 419.3 Z" fill="#2aceac" stroke="#33333355" stroke-width="0.8" stroke-linejoin="round"/><path d="M105.2 428.8 L564.6 280.6 L564.6 271.1 L105.2 419.3 Z" fill="#26b89a" stroke="#33333355" stroke-width="0.8" stroke-linejoin="round"/><path d="M100.4 408.6 L100.4 256.6 L114.0 264.5 L114.0 416.5 Z" fill="#a59820" stroke="#33333355" stroke-width="0.8" stroke-linejoin="round"/><path d="M91.6 259.4 L100.4 256.6 L114.0 264.5 L105.2 267.3 Z" fill="#edda2f" stroke="#33333355" stroke-width="0.8" stroke-linejoin="round"/><path d="M105.2 419.3 L114.0 416.5 L114.0 264.5 L105.2 267.3 Z" fill="#d4c32a" stroke="#33333355" stroke-width="0.8" stroke-linejoin="round"/><path d="M153.4 391.5 L153.4 239.5 L167.0 247.4 L167.0 399.4 Z" fill="#a59820" stroke="#33333355" stroke-width="0.8" stroke-linejoin="round"/><path d="M144.6 242.3 L153.4 239.5 L167.0 247.4 L158.2 250.2 Z" fill="#edda2f" stroke="#33333355" stroke-width="0.8" stroke-linejoin="round"/><path d="M158.2 402.2 L167.0 399.4 L167.0 247.4 L158.2 250.2 Z" fill="#d4c32a" stroke="#33333355" stroke-width="0.8" stroke-linejoin="round"/><path d="M232.9 365.8 L232.9 213.8 L246.5 221.7 L246.5 373.7 Z" fill="#a59820" stroke="#33333355" stroke-width="0.8" stroke-linejoin="round"/><path d="M224.1 216.7 L232.9 213.8 L246.5 221.7 L237.7 224.6 Z" fill="#edda2f" stroke="#33333355" stroke-width="0.8" stroke-linejoin="round"/><path d="M237.7 376.6 L246.5 373.7 L246.5 221.7 L237.7 224.6 Z" fill="#d4c32a" stroke="#33333355" stroke-width="0.8" stroke-linejoin="round"/><path d="M277.1 351.6 L277.1 199.6 L290.7 207.5 L290.7 359.5 Z" fill="#a59820" stroke="#33333355" stroke-width="0.8" stroke-linejoin="round"/><path d="M268.3 202.4 L277.1 199.6 L290.7 207.5 L281.9 210.3 Z" fill="#edda2f" stroke="#33333355" stroke-width="0.8" stroke-linejoin="round"/><path d="M281.9 362.3 L290.7 359.5 L290.7 207.5 L281.9 210.3 Z" fill="#d4c32a" stroke="#33333355" stroke-width="0.8" stroke-linejoin="round"/><path d="M303.6 343.0 L303.6 191.0 L317.2 198.9 L317.2 350.9 Z" fill="#a59820" stroke="#33333355" stroke-width="0.8" stroke-linejoin="round"/><path d="M294.8 193.9 L303.6 191.0 L317.2 198.9 L308.4 201.8 Z" fill="#edda2f" stroke="#33333355" stroke-width="0.8" stroke-linejoin="round"/><path d="M308.4 353.8 L317.2 350.9 L317.2 198.9 L308.4 201.8 Z" fill="#d4c32a" stroke="#33333355" stroke-width="0.8" stroke-linejoin="round"/><path d="M392.0 314.5 L392.0 162.5 L405.5 170.4 L405.5 322.4 Z" fill="#a59820" stroke="#33333355" stroke-width="0.8" stroke-linejoin="round"/><path d="M383.1 165.4 L392.0 162.5 L405.5 170.4 L396.7 173.3 Z" fill="#edda2f" stroke="#33333355" stroke-width="0.8" stroke-linejoin="round"/><path d="M396.7 325.3 L405.5 322.4 L405.5 170.4 L396.7 173.3 Z" fill="#d4c32a" stroke="#33333355" stroke-width="0.8" stroke-linejoin="round"/><path d="M436.1 300.3 L436.1 148.3 L449.7 156.2 L449.7 308.2 Z" fill="#a59820" stroke="#33333355" stroke-width="0.8" stroke-linejoin="round"/><path d="M427.3 151.1 L436.1 148.3 L449.7 156.2 L440.9 159.0 Z" fill="#edda2f" stroke="#33333355" stroke-width="0.8" stroke-linejoin="round"/><path d="M440.9 311.0 L449.7 308.2 L449.7 156.2 L440.9 159.0 Z" fill="#d4c32a" stroke="#33333355" stroke-width="0.8" stroke-linejoin="round"/><path d="M551.0 263.2 L551.0 111.2 L564.6 119.1 L564.6 271.1 Z" fill="#a59820" stroke="#33333355" stroke-width="0.8" stroke-linejoin="round"/><path d="M542.2 114.1 L551.0 111.2 L564.6 119.1 L555.7 122.0 Z" fill="#edda2f" stroke="#33333355" stroke-width="0.8" stroke-linejoin="round"/><path d="M555.7 274.0 L564.6 271.1 L564.6 119.1 L555.7 122.0 Z" fill="#d4c32a" stroke="#33333355" stroke-width="0.8" stroke-linejoin="round"/><path d="M225.1 359.8 L225.1 245.8 L226.2 246.4 L226.2 360.4 Z" fill="#245e8d" stroke="#33333355" stroke-width="0.8" stroke-linejoin="round" opacity="0.9"/><path d="M154.5 268.6 L225.1 245.8 L226.2 246.4 L155.5 269.2 Z" fill="#3487ca" stroke="#33333355" stroke-width="0.8" stroke-linejoin="round" opacity="0.9"/><path d="M155.5 383.2 L226.2 360.4 L226.2 246.4 L155.5 269.2 Z" fill="#2f79b5" stroke="#33333355" stroke-width="0.8" stroke-linejoin="round" opacity="0.9"/><path d="M224.1 243.3 L224.1 231.9 L237.7 239.8 L237.7 251.2 Z" fill="#892555" stroke="#33333355" stroke-width="0.8" stroke-linejoin="round"/><path d="M153.4 254.7 L224.1 231.9 L237.7 239.8 L167.0 262.6 Z" fill="#c5357b" stroke="#33333355" stroke-width="0.8" stroke-linejoin="round"/><path d="M167.0 274.0 L237.7 251.2 L237.7 239.8 L167.0 262.6 Z" fill="#b0306e" stroke="#33333355" stroke-width="0.8" stroke-linejoin="round"/><path d="M384.2 308.5 L384.2 194.5 L385.2 195.1 L385.2 309.1 Z" fill="#245e8d" stroke="#33333355" stroke-width="0.8" stroke-linejoin="round" opacity="0.9"/><path d="M304.7 220.1 L384.2 194.5 L385.2 195.1 L305.7 220.7 Z" fill="#3487ca" stroke="#33333355" stroke-width="0.8" stroke-linejoin="round" opacity="0.9"/><path d="M305.7 334.7 L385.2 309.1 L385.2 195.1 L305.7 220.7 Z" fill="#2f79b5" stroke="#33333355" stroke-width="0.8" stroke-linejoin="round" opacity="0.9"/><path d="M383.1 192.0 L383.1 180.6 L396.7 188.5 L396.7 199.9 Z" fill="#892555" stroke="#33333355" stroke-width="0.8" stroke-linejoin="round"/><path d="M303.6 206.2 L383.1 180.6 L396.7 188.5 L317.2 214.1 Z" fill="#c5357b" stroke="#33333355" stroke-width="0.8" stroke-linejoin="round"/><path d="M317.2 225.5 L396.7 199.9 L396.7 188.5 L317.2 214.1 Z" fill="#b0306e" stroke="#33333355" stroke-width="0.8" stroke-linejoin="round"/><path d="M551.0 111.2 L551.0 101.7 L564.6 109.6 L564.6 119.1 Z" fill="#1d8f78" stroke="#33333355" stroke-width="0.8" stroke-linejoin="round"/><path d="M91.6 249.9 L551.0 101.7 L564.6 109.6 L105.2 257.8 Z" fill="#2aceac" stroke="#33333355" stroke-width="0.8" stroke-linejoin="round"/><path d="M105.2 267.3 L564.6 119.1 L564.6 109.6 L105.2 257.8 Z" fill="#26b89a" stroke="#33333355" stroke-width="0.8" stroke-linejoin="round"/></svg>
